<svg xmlns="http://www.w3.org/2000/svg" width="375" viewBox="0 0 375 375" height="375" version="1.0"><g fill-opacity=".4"><g><g><path d="M 136.171875 0 L 103.65625 -53.859375 C 101.957031 -53.691406 99.242188 -53.609375 95.515625 -53.609375 L 53.34375 -53.609375 L 53.34375 0 L 23.375 0 L 23.375 -177.828125 L 95.515625 -177.828125 C 118.210938 -177.828125 135.828125 -172.535156 148.359375 -161.953125 C 160.890625 -151.367188 167.15625 -136.421875 167.15625 -117.109375 C 167.15625 -102.890625 163.976562 -90.867188 157.625 -81.046875 C 151.28125 -71.222656 142.179688 -64.023438 130.328125 -59.453125 L 170.21875 0 Z M 53.34375 -80.53125 L 95.515625 -80.53125 C 124.304688 -80.53125 138.703125 -92.472656 138.703125 -116.359375 C 138.703125 -139.390625 124.304688 -150.90625 95.515625 -150.90625 L 53.34375 -150.90625 Z M 53.34375 -80.53125" transform="translate(189.422 296.4)"/></g></g></g><g fill="#FFF"><g><g><path d="M 136.171875 0 L 103.65625 -53.859375 C 101.957031 -53.691406 99.242188 -53.609375 95.515625 -53.609375 L 53.34375 -53.609375 L 53.34375 0 L 23.375 0 L 23.375 -177.828125 L 95.515625 -177.828125 C 118.210938 -177.828125 135.828125 -172.535156 148.359375 -161.953125 C 160.890625 -151.367188 167.15625 -136.421875 167.15625 -117.109375 C 167.15625 -102.890625 163.976562 -90.867188 157.625 -81.046875 C 151.28125 -71.222656 142.179688 -64.023438 130.328125 -59.453125 L 170.21875 0 Z M 53.34375 -80.53125 L 95.515625 -80.53125 C 124.304688 -80.53125 138.703125 -92.472656 138.703125 -116.359375 C 138.703125 -139.390625 124.304688 -150.90625 95.515625 -150.90625 L 53.34375 -150.90625 Z M 53.34375 -80.53125" transform="translate(187.5 288.697)"/></g></g></g><g fill-opacity=".4"><g><g><path d="M 145.0625 -87.390625 L 171.234375 -87.390625 L 171.234375 -21.84375 C 162.085938 -14.90625 151.289062 -9.316406 138.84375 -5.078125 C 126.394531 -0.847656 114.15625 1.265625 102.125 1.265625 C 75.875 1.265625 53.726562 -7.410156 35.6875 -24.765625 C 17.65625 -42.128906 8.640625 -63.515625 8.640625 -88.921875 C 8.640625 -114.328125 17.785156 -135.625 36.078125 -152.8125 C 54.367188 -170 76.976562 -178.59375 103.90625 -178.59375 C 116.4375 -178.59375 128.753906 -176.347656 140.859375 -171.859375 C 152.972656 -167.367188 163.4375 -161.316406 172.25 -153.703125 L 155.21875 -131.59375 C 140.65625 -145.144531 123.550781 -151.921875 103.90625 -151.921875 C 85.78125 -151.921875 70.453125 -145.820312 57.921875 -133.625 C 45.390625 -121.4375 39.125 -106.535156 39.125 -88.921875 C 39.125 -71.128906 45.429688 -56.132812 58.046875 -43.9375 C 70.660156 -31.75 86.03125 -25.65625 104.15625 -25.65625 C 117.875 -25.65625 131.507812 -29.722656 145.0625 -37.859375 Z M 145.0625 -87.390625" transform="translate(10.603 296.4)"/></g></g></g><g fill="#FFF"><g><g><path d="M 145.0625 -87.390625 L 171.234375 -87.390625 L 171.234375 -21.84375 C 162.085938 -14.90625 151.289062 -9.316406 138.84375 -5.078125 C 126.394531 -0.847656 114.15625 1.265625 102.125 1.265625 C 75.875 1.265625 53.726562 -7.410156 35.6875 -24.765625 C 17.65625 -42.128906 8.640625 -63.515625 8.640625 -88.921875 C 8.640625 -114.328125 17.785156 -135.625 36.078125 -152.8125 C 54.367188 -170 76.976562 -178.59375 103.90625 -178.59375 C 116.4375 -178.59375 128.753906 -176.347656 140.859375 -171.859375 C 152.972656 -167.367188 163.4375 -161.316406 172.25 -153.703125 L 155.21875 -131.59375 C 140.65625 -145.144531 123.550781 -151.921875 103.90625 -151.921875 C 85.78125 -151.921875 70.453125 -145.820312 57.921875 -133.625 C 45.390625 -121.4375 39.125 -106.535156 39.125 -88.921875 C 39.125 -71.128906 45.429688 -56.132812 58.046875 -43.9375 C 70.660156 -31.75 86.03125 -25.65625 104.15625 -25.65625 C 117.875 -25.65625 131.507812 -29.722656 145.0625 -37.859375 Z M 145.0625 -87.390625" transform="translate(8.683 288.697)"/></g></g></g></svg>