<?xml version="1.0" standalone="no"?>
<!DOCTYPE svg PUBLIC "-//W3C//DTD SVG 20010904//EN"
 "http://www.w3.org/TR/2001/REC-SVG-20010904/DTD/svg10.dtd">
<svg version="1.0" xmlns="http://www.w3.org/2000/svg"
 width="330.000000pt" height="985.000000pt" viewBox="0 0 330.000000 985.000000"
 preserveAspectRatio="xMidYMid meet">

<g transform="translate(0.000000,985.000000) scale(0.100000,-0.100000)"
fill="#000000" stroke="none">
<path d="M2070 9790 c-8 -11 -19 -20 -26 -20 -13 0 -12 -39 2 -48 5 -4 9 -20
9 -37 0 -28 -3 -30 -45 -36 -25 -3 -38 -7 -30 -7 9 -1 16 -11 17 -22 2 -17 -1
-18 -18 -7 -10 6 -19 16 -19 21 0 5 -13 6 -30 3 -42 -9 -65 26 -55 83 4 25 3
40 -3 40 -6 0 -19 3 -29 6 -13 5 -12 2 5 -11 22 -16 22 -18 5 -31 -10 -7 -13
-14 -6 -14 19 0 2 -39 -19 -42 -17 -2 -13 -9 24 -35 32 -23 48 -29 56 -21 17
17 44 1 37 -22 -5 -14 -2 -20 9 -20 9 0 16 -5 16 -11 0 -5 -4 -7 -10 -4 -6 3
-10 -5 -10 -19 0 -23 -3 -24 -34 -19 -32 5 -33 4 -45 -41 -15 -62 -42 -64 -37
-3 2 24 9 53 15 65 18 33 13 35 -13 5 l-25 -28 10 44 c5 24 12 48 15 52 2 4
-2 13 -9 21 -8 7 -19 24 -26 36 -10 19 -9 23 10 30 21 8 20 9 -11 35 -37 32
-50 34 -50 9 0 -18 29 -81 52 -114 11 -15 7 -23 -20 -51 -38 -39 -72 -130 -45
-120 11 4 14 2 11 -8 -3 -8 -12 -13 -20 -13 -8 1 -23 -12 -33 -29 -10 -16 -13
-27 -7 -23 30 18 17 -22 -28 -89 -56 -83 -71 -94 -97 -74 -15 13 -15 12 -5 -7
23 -43 39 -36 99 41 58 74 84 87 43 20 -12 -20 -19 -43 -15 -53 3 -11 -1 -24
-9 -31 -14 -12 -28 -46 -40 -102 -4 -18 1 -33 14 -49 l20 -23 -25 -34 c-15
-18 -22 -33 -16 -33 5 0 13 5 16 10 12 20 24 10 20 -17 -2 -16 -4 -31 -4 -35
-1 -4 -13 -1 -28 7 -25 13 -28 12 -55 -23 -29 -36 -30 -44 -13 -98 5 -16 2
-23 -14 -27 -15 -4 -21 -13 -21 -34 0 -27 -3 -29 -92 -51 -107 -26 -255 -93
-342 -157 -180 -129 -361 -388 -391 -560 -6 -28 -18 -49 -41 -68 -19 -16 -34
-35 -34 -43 0 -19 -14 -18 -31 2 -7 9 -22 20 -34 25 -11 5 -35 21 -54 34 -25
18 -47 25 -80 25 -55 0 -82 -17 -105 -64 -28 -60 -15 -86 26 -49 17 15 18 14
19 -38 0 -52 1 -53 16 -31 8 12 25 22 37 22 12 0 27 5 34 12 9 9 12 5 12 -21
0 -28 3 -32 18 -26 9 5 32 10 50 13 29 4 32 2 32 -22 0 -26 13 -35 25 -16 4 6
10 8 15 5 5 -3 12 5 16 19 3 13 12 27 21 30 8 3 11 10 8 16 -3 5 -1 10 5 10
15 0 3 -57 -19 -87 -9 -13 -25 -22 -36 -22 -77 4 -72 -24 6 -31 l54 -5 3 -37
c3 -31 0 -37 -13 -32 -9 4 -14 12 -11 19 3 8 -1 15 -7 18 -16 5 -124 0 -160
-7 -15 -4 -36 -2 -47 4 -12 6 -20 7 -20 1 0 -5 -13 -14 -29 -19 -23 -8 -32 -7
-41 3 -6 7 -22 15 -37 18 l-26 5 6 -62 c9 -89 43 -191 78 -231 28 -31 36 -35
83 -35 60 0 122 31 112 57 -5 11 -2 14 10 9 21 -8 44 11 44 35 0 14 7 19 25
19 14 0 25 5 25 10 0 25 28 6 34 -22 3 -18 15 -55 26 -83 10 -27 31 -81 45
-119 30 -78 78 -155 133 -213 20 -22 30 -30 21 -19 -38 51 -99 150 -99 162 0
27 20 13 41 -28 33 -66 108 -168 159 -216 104 -99 268 -194 391 -225 52 -14
54 -16 61 -53 3 -22 18 -58 33 -81 22 -33 34 -42 67 -46 54 -7 93 -49 80 -86
-4 -14 -6 -116 -3 -226 6 -232 6 -259 2 -543 -1 -118 0 -216 3 -219 2 -3 1
-16 -4 -29 -6 -14 -6 -26 0 -29 13 -8 13 -61 1 -84 -6 -11 -3 -40 10 -86 13
-48 17 -84 13 -113 -5 -35 -3 -47 14 -65 22 -25 30 -55 39 -142 5 -54 4 -58
-11 -46 -10 9 -16 10 -16 2 0 -6 5 -12 10 -12 6 -1 15 -3 20 -4 6 -1 15 -3 20
-4 16 -2 12 -28 -7 -47 -17 -17 -16 -17 9 -11 21 6 33 2 48 -13 32 -32 114
-22 94 11 -4 8 11 -4 33 -26 23 -22 37 -42 31 -44 -6 -2 -19 7 -29 20 -14 19
-20 22 -30 12 -7 -7 -25 -13 -39 -13 -14 0 -35 -7 -46 -16 -19 -15 -18 -15 4
-11 12 3 22 2 22 -2 0 -16 -53 -31 -113 -32 -34 -1 -73 -5 -87 -9 -15 -6 39
-8 135 -6 105 3 144 1 115 -4 -25 -5 -111 -10 -193 -11 -81 0 -150 -5 -153
-10 -3 -5 7 -9 23 -9 15 0 24 -4 18 -8 -20 -14 -15 -32 9 -32 13 0 31 -3 40
-6 9 -3 16 -1 16 4 0 6 -10 13 -22 15 -20 4 -19 4 5 6 18 1 27 -4 27 -14 0 -8
3 -15 8 -16 4 0 27 -2 52 -4 84 -7 130 -16 125 -26 -4 -5 -18 -9 -33 -10 l-27
-1 30 -10 c45 -15 437 -16 442 -1 5 15 154 9 220 -8 48 -13 48 -29 0 -29 -62
0 -79 -28 -27 -45 28 -9 37 -9 48 2 9 9 18 10 26 4 6 -5 25 -11 41 -13 22 -2
30 -8 30 -23 0 -18 -7 -20 -70 -21 -38 0 -81 -1 -95 -3 -23 -2 -22 -3 13 -19
45 -20 43 -38 -4 -35 -31 2 -30 1 16 -15 29 -11 55 -15 62 -10 19 15 107 -5
111 -25 4 -19 8 -18 -124 -20 l-82 -2 22 -21 c11 -11 24 -19 29 -16 17 8 67
-10 67 -25 0 -9 -3 -14 -6 -10 -3 3 -14 -2 -25 -11 -20 -17 -27 -72 -9 -72 13
0 13 -33 -1 -47 -14 -14 48 -26 130 -24 44 2 67 -2 72 -11 5 -7 9 -50 9 -95 0
-92 -2 -94 -80 -90 -27 2 -35 7 -41 27 l-6 25 -4 -25 c-2 -14 -11 -25 -19 -26
-8 -1 -32 -2 -53 -2 -54 -3 -36 -22 21 -23 37 -1 42 -3 22 -8 l-25 -8 24 -4
c14 -2 26 -9 28 -14 2 -7 -33 -11 -97 -13 -89 -1 -101 0 -119 19 -18 20 -28
21 -218 18 -109 -2 -223 -6 -253 -10 -30 -4 60 -6 201 -6 199 2 256 -1 256
-10 0 -10 -132 -13 -624 -13 -414 0 -622 3 -618 10 3 6 34 10 68 10 75 0 59
19 -18 21 -27 1 -40 4 -27 6 23 5 29 18 11 28 -6 4 -10 36 -9 73 2 104 1 122
-10 122 -6 0 -10 -37 -10 -90 0 -49 -3 -90 -7 -90 -5 0 -8 41 -8 90 0 89 1 91
25 96 14 3 44 10 67 16 23 5 47 7 55 2 7 -4 5 2 -5 13 -9 11 -17 27 -17 36 0
10 -8 17 -20 17 -11 0 -19 3 -18 7 1 5 -2 20 -6 35 -10 36 1 67 27 78 21 8 20
9 -5 9 -23 1 -28 6 -28 26 0 14 -5 25 -11 25 -5 0 -8 -4 -5 -8 2 -4 1 -14 -5
-22 -7 -12 -9 -12 -9 3 0 33 19 55 54 61 19 4 39 13 46 21 10 13 8 15 -14 15
-19 0 -27 6 -32 25 -6 24 -24 35 -24 15 0 -5 -4 -10 -10 -10 -5 0 -10 6 -10
14 0 7 -10 16 -21 19 -20 5 -20 7 -6 21 9 9 24 16 35 16 11 0 34 3 52 6 23 5
28 9 18 16 -24 16 21 38 81 39 31 1 70 5 86 10 17 4 -96 6 -257 3 l-288 -6 0
50 c0 85 -27 79 325 77 l313 -2 -8 23 c-6 16 -5 26 6 34 13 11 18 7 15 -13 -1
-9 13 -9 22 -1 3 4 -1 13 -9 21 -12 12 -12 18 -3 30 11 12 14 12 22 -4 13 -23
27 -33 50 -33 24 0 22 17 -4 25 -16 6 -19 12 -14 36 7 33 -1 38 -21 12 -13
-17 -13 -17 -14 2 0 13 -7 7 -20 -21 -21 -41 -53 -64 -90 -64 -11 0 -20 -4
-20 -8 0 -4 -10 -9 -22 -9 -13 -1 -33 -5 -44 -7 -16 -4 -23 0 -27 14 -5 20 3
25 32 20 25 -3 81 11 81 20 0 6 -7 10 -15 10 -13 0 -14 4 -5 23 l11 22 -20
-23 c-10 -12 -24 -22 -29 -22 -15 0 -23 28 -16 56 4 14 2 24 -5 24 -6 0 -11
-8 -11 -18 0 -24 -19 -42 -44 -42 -23 0 -16 -10 10 -14 29 -4 29 -26 0 -26
-19 0 -29 -7 -36 -25 -9 -25 -34 -33 -44 -16 -9 13 4 41 18 41 6 0 12 9 12 20
0 17 -6 20 -31 18 -20 -2 -29 1 -28 9 2 7 -21 -2 -50 -20 -58 -37 -132 -69
-140 -60 -3 3 -12 1 -19 -3 -7 -5 -35 -10 -63 -12 -35 -2 -55 -9 -67 -24 -19
-22 -48 -18 -48 7 0 8 -4 15 -10 15 -5 0 -10 -4 -10 -9 0 -6 -11 -22 -25 -37
-19 -20 -25 -37 -23 -58 3 -27 7 -31 36 -34 17 -2 32 -7 32 -11 0 -12 -141
-24 -151 -14 -11 11 -143 -3 -170 -18 -10 -5 -24 -19 -30 -30 -8 -17 -7 -23 8
-34 13 -10 20 -10 26 -2 6 8 7 5 3 -6 -3 -10 -6 -30 -6 -43 0 -17 -6 -24 -20
-24 -26 0 -59 -48 -40 -60 7 -4 18 -6 25 -4 8 3 10 -5 7 -26 -3 -21 -11 -32
-26 -36 -16 -4 -36 -32 -69 -100 -26 -52 -47 -96 -47 -98 0 -2 11 -7 25 -10
23 -6 25 -11 25 -60 0 -29 -3 -74 -6 -98 -6 -39 -11 -48 -41 -62 -18 -9 -40
-16 -48 -16 -7 0 -17 -5 -21 -12 -5 -7 -2 -9 7 -6 8 3 23 2 34 -3 19 -7 19 -8
1 -8 -15 -1 -16 -4 -7 -15 9 -11 2 -15 -43 -20 -60 -8 -100 -36 -51 -36 l27 0
-7 -118 c-5 -64 -7 -147 -6 -184 2 -45 -1 -68 -9 -68 -7 0 -9 8 -5 19 3 10 -1
24 -10 31 -9 8 -16 32 -17 64 l-1 51 -4 -45 c-2 -25 -9 -56 -16 -69 -9 -19 -9
-25 1 -28 14 -5 17 -93 2 -93 -5 0 -10 -9 -10 -20 0 -11 5 -20 10 -20 6 0 10
-54 9 -142 0 -89 -4 -135 -9 -123 -8 19 -9 19 -9 -2 -1 -13 3 -23 7 -23 4 0 8
-12 7 -27 0 -23 5 -29 28 -31 25 -3 27 -6 25 -50 l-1 -47 -4 42 c-4 40 -6 43
-34 43 -32 0 -39 -22 -15 -53 9 -12 14 -52 15 -120 2 -108 -5 -150 -20 -125
-6 9 -9 8 -9 -8 0 -11 4 -24 9 -30 5 -5 10 -22 11 -39 3 -44 1 -52 -10 -35 -8
12 -10 11 -10 -7 0 -12 4 -23 9 -25 11 -3 18 -255 8 -265 -4 -3 -7 -1 -7 6 0
7 -5 9 -10 6 -16 -10 -12 -48 3 -42 10 4 13 -2 9 -19 -2 -13 1 -30 7 -38 8
-10 9 -16 1 -21 -5 -3 -10 0 -10 7 0 10 -2 10 -8 1 -4 -7 -6 -30 -3 -50 4 -35
5 -36 12 -13 4 14 7 -34 8 -107 1 -114 -1 -132 -14 -127 -10 4 -15 0 -15 -15
0 -12 5 -21 11 -21 7 0 9 -13 5 -37 -3 -21 -6 -197 -6 -392 0 -195 -3 -370 -6
-389 -4 -22 -14 -36 -25 -39 -20 -6 -20 -13 -23 -331 -1 -34 -5 -63 -11 -64
-5 0 -17 -1 -25 -2 -12 -1 -16 -20 -18 -96 -4 -126 -1 -135 57 -164 139 -71
463 -112 1071 -137 318 -13 988 -7 1285 11 329 20 680 77 783 128 80 39 86 52
79 180 -5 99 -7 108 -31 129 -26 22 -26 23 -26 173 0 154 -10 207 -43 226 -12
8 -15 74 -20 405 -5 347 -4 399 9 418 9 13 13 29 9 39 -6 15 -8 15 -15 -3 -5
-12 -9 34 -9 116 -1 92 3 139 11 147 9 9 9 12 0 12 -7 0 -12 8 -12 18 0 14 2
15 10 2 8 -13 10 -12 10 3 0 9 -4 17 -10 17 -5 0 -10 11 -10 25 0 14 5 25 10
25 6 0 10 10 10 22 0 21 0 21 -16 2 -15 -19 -16 -19 -7 1 4 11 7 75 5 142 -2
76 1 124 8 128 5 3 10 15 10 26 0 11 -4 17 -10 14 -15 -10 -12 43 5 68 9 15
11 27 5 37 -8 13 -10 12 -10 -2 0 -10 -3 -18 -7 -18 -13 0 -8 259 5 272 14 14
16 40 3 54 -16 16 -17 49 -2 60 9 7 12 18 7 30 -7 17 -9 18 -15 2 -3 -10 -4
42 -3 115 2 73 8 134 13 135 12 5 11 39 -1 47 -5 3 -10 22 -10 41 0 19 5 34
10 34 6 0 10 9 10 20 0 22 -16 27 -23 8 -3 -7 -4 48 -3 122 1 103 4 138 15
146 8 6 11 16 6 24 -6 10 -9 9 -17 -1 -7 -10 -8 -8 -5 8 6 28 -33 73 -65 74
-18 1 -19 2 -5 6 25 6 18 47 -8 51 -11 2 -23 7 -27 10 -4 4 -11 59 -17 124 -9
106 -14 124 -55 212 -24 53 -51 96 -58 96 -10 0 -9 3 2 10 13 9 13 12 -3 24
-13 10 -15 15 -5 18 19 7 -16 78 -39 79 -16 0 -15 2 2 9 17 7 17 9 3 9 -22 1
-24 21 -3 21 20 0 19 29 -4 66 -27 44 -81 58 -203 49 -69 -5 -98 -4 -98 4 0 6
9 11 21 11 15 0 19 4 15 16 -3 9 -6 21 -6 27 0 16 -63 42 -120 51 -65 10 -110
26 -110 39 0 7 -20 20 -44 30 -61 25 -156 114 -214 201 -83 124 -117 289 -132
645 -6 130 -15 263 -20 296 -5 33 -14 173 -20 310 -13 332 -15 344 -48 351
-15 3 -33 7 -40 10 -8 2 -11 -4 -7 -19 2 -12 9 -132 15 -267 5 -135 12 -265
15 -290 3 -25 10 -124 15 -220 14 -251 32 -443 42 -456 4 -6 9 -30 10 -52 1
-23 5 -39 10 -36 4 3 8 1 8 -5 0 -5 -4 -12 -10 -16 -12 -7 22 -44 34 -37 5 3
6 -3 2 -13 -4 -11 0 -25 10 -36 9 -10 14 -24 12 -31 -3 -7 -2 -33 2 -58 6 -39
8 -40 9 -12 0 17 5 32 11 32 8 0 3 -88 -6 -99 -6 -7 -34 71 -28 80 3 5 1 9 -5
9 -6 0 -14 -12 -17 -27 -6 -22 -9 -24 -18 -11 -16 22 -44 19 -38 -5 3 -10 11
-21 18 -24 8 -3 14 -14 14 -24 0 -10 5 -19 11 -19 12 0 69 -60 69 -73 0 -13
-40 13 -72 46 -23 26 -27 27 -18 9 20 -40 3 -36 -28 7 -16 22 -32 38 -35 35
-3 -3 -13 8 -23 25 -10 17 -22 31 -26 31 -4 0 -4 7 -1 17 5 12 3 14 -7 8 -10
-6 -12 -1 -7 21 6 25 5 26 -4 8 -8 -15 -4 -36 15 -88 14 -38 26 -73 26 -79 0
-44 -74 143 -85 213 -3 25 -10 59 -15 75 -22 73 -29 245 -31 755 -1 300 -4
568 -7 597 l-4 52 -46 -5 -47 -5 33 15 c41 19 46 56 6 48 -19 -3 -26 0 -31 16
-3 12 -13 24 -22 27 -12 3 -16 17 -16 49 l0 44 67 7 c62 6 177 -9 179 -24 0
-3 1 -23 2 -45 l2 -39 -70 -1 c-58 -1 -70 -4 -73 -18 -3 -13 3 -18 21 -18 31
0 37 -8 27 -34 -5 -13 -4 -29 1 -37 6 -11 9 -8 9 10 0 22 3 23 38 17 36 -5 41
-3 71 34 26 33 32 48 29 78 -3 36 -2 37 42 53 88 30 222 105 284 159 64 55 91
95 108 160 5 19 14 53 20 75 5 22 9 64 9 93 -1 30 2 59 7 65 6 7 12 30 14 53
3 23 8 46 12 53 4 7 3 17 -2 24 -7 8 -3 26 12 57 17 37 27 46 59 53 33 8 42 6
63 -14 13 -12 24 -33 24 -46 0 -14 7 -31 15 -39 19 -19 19 -45 0 -118 -9 -33
-13 -61 -11 -64 3 -2 -4 -22 -15 -44 -11 -22 -18 -42 -15 -45 18 -18 126 276
126 345 0 20 5 44 11 52 8 12 10 9 6 -13 l-5 -29 32 31 c39 38 100 44 109 11
3 -11 17 -22 33 -26 16 -4 41 -20 56 -36 20 -21 35 -28 65 -28 66 0 80 9 105
63 21 48 23 65 23 237 0 168 -2 192 -24 258 -30 92 -57 116 -120 107 -59 -9
-66 -12 -81 -40 -7 -13 -23 -26 -36 -29 -13 -4 -31 -17 -40 -31 -10 -16 -26
-25 -41 -25 -18 0 -28 -8 -36 -30 -17 -45 -32 -36 -46 28 -20 88 -85 236 -138
310 -26 37 -97 117 -157 178 -98 98 -122 116 -206 158 -52 25 -138 62 -190 80
-90 32 -95 35 -98 64 -2 20 -10 32 -23 35 -16 4 -19 15 -20 69 -1 59 -2 61
-11 28 -6 -19 -10 -48 -10 -63 -1 -20 -5 -27 -17 -25 -11 3 -15 12 -13 31 3
32 -15 37 -20 5 -2 -15 -10 -23 -23 -23 -16 0 -19 6 -17 29 2 18 -6 42 -22 66
l-25 38 30 28 c26 25 29 34 29 93 1 76 19 113 45 91 12 -10 15 -10 16 1 6 87
12 117 25 136 14 23 14 23 -13 17 -37 -10 -65 -44 -50 -62 9 -11 6 -13 -13
-10 -13 1 -24 11 -26 21 -1 9 2 15 7 11 5 -3 9 7 9 21 0 28 29 85 43 85 4 0 5
5 2 10 -3 6 1 10 9 10 9 0 21 9 28 20 7 11 20 20 30 20 9 0 18 5 20 11 2 7 13
9 26 5 18 -6 20 -12 15 -39 -8 -41 -9 -43 -30 -26 -16 12 -17 12 -6 -1 10 -13
17 -57 14 -84 -1 -5 -8 -2 -18 5 -15 13 -16 11 -9 -15 6 -26 5 -28 -8 -17 -9
8 -16 9 -16 4 0 -5 11 -15 25 -21 28 -13 32 -27 11 -35 -8 -3 -17 2 -21 11 -5
13 -10 7 -21 -23 -17 -51 -17 -63 0 -81 20 -20 21 -19 36 29 8 23 18 48 23 55
5 7 14 54 18 104 7 73 16 107 43 163 44 91 91 155 115 155 38 0 51 11 51 45 0
19 -5 37 -11 41 -6 3 -8 15 -6 26 4 16 3 17 -9 7 -12 -9 -14 -6 -14 18 0 16 5
34 12 41 6 6 9 14 7 17 -3 2 -11 -4 -19 -15z m-257 -295 c-3 -9 -8 -14 -10
-11 -3 3 -2 9 2 15 9 16 15 13 8 -4z m93 -39 c1 -17 -2 -23 -12 -19 -17 6 -18
15 -2 31 7 7 12 12 13 12 0 0 1 -11 1 -24z m-97 -60 c-9 -8 -49 -17 -49 -11 0
3 5 15 10 26 10 18 12 18 27 4 8 -9 14 -17 12 -19z m-87 -224 c-8 -21 -44 -52
-54 -46 -5 3 2 23 14 44 17 28 26 36 35 29 6 -6 9 -18 5 -27z m-75 -296 c-3
-8 2 -17 11 -21 9 -3 18 -1 20 4 2 6 8 11 13 11 6 0 7 -5 3 -11 -3 -6 -1 -15
6 -19 7 -4 9 -13 6 -19 -4 -6 -12 -9 -17 -6 -5 4 -9 1 -9 -4 0 -15 -27 -14
-33 2 -4 8 -6 7 -6 -4 -1 -10 15 -19 52 -28 85 -21 89 -22 83 -36 -3 -9 6 -16
25 -20 16 -4 29 -9 29 -11 0 -9 -35 -41 -52 -47 -10 -4 -15 -12 -12 -20 3 -8
-2 -17 -10 -20 -9 -4 -16 -2 -16 3 0 18 22 65 33 72 7 4 -9 8 -35 8 -25 0 -48
-5 -50 -11 -2 -6 -18 -9 -35 -7 l-31 3 14 34 c10 25 17 31 27 23 8 -7 16 -6
24 3 9 10 6 13 -15 13 -14 0 -33 9 -43 21 -12 15 -19 18 -23 9 -4 -7 -3 3 0
22 3 19 6 43 6 53 -1 11 7 17 20 17 13 0 18 -5 15 -14z m61 -202 c24 -7 31
-24 9 -24 -15 0 -57 29 -42 30 6 0 20 -3 33 -6z m118 -62 c-4 -3 -14 2 -24 12
-16 18 -16 18 6 6 13 -6 21 -14 18 -18z m34 -37 c-7 -8 -17 -15 -23 -15 -6 0
-2 7 9 15 25 19 30 19 14 0z m-404 -75 c25 0 5 -19 -29 -29 -30 -9 -29 -9 19
-10 56 -1 69 5 53 26 -9 10 -8 13 4 13 9 0 19 -4 22 -10 9 -15 25 -12 25 4 0
9 7 12 19 9 15 -4 18 -12 14 -39 -5 -36 12 -68 30 -57 6 3 7 1 3 -5 -10 -17
-26 -15 -48 5 -17 15 -18 15 -13 0 4 -9 15 -19 25 -22 10 -3 20 -14 23 -23 3
-13 7 -11 17 11 17 34 29 35 25 2 -3 -36 24 -29 55 15 27 38 67 49 62 16 -2
-10 2 -16 8 -14 6 2 10 7 8 11 -4 10 31 31 39 24 3 -3 -2 -16 -11 -29 -9 -12
-16 -29 -16 -38 0 -8 11 2 25 23 14 20 27 37 29 37 3 0 2 -26 0 -57 -5 -56 -3
-60 36 -107 22 -26 40 -54 40 -62 0 -8 7 -14 15 -14 17 0 20 16 5 23 -6 3 -5
4 2 3 8 -2 12 -14 10 -30 -3 -24 -1 -26 11 -14 8 7 12 19 10 25 -8 20 27 28
43 9 8 -9 9 -11 2 -6 -16 13 -41 13 -36 -1 2 -6 6 -9 10 -7 7 4 48 -32 48 -43
0 -4 -12 -6 -27 -4 -17 2 -27 8 -25 16 2 10 0 10 -12 0 -9 -8 -27 -10 -50 -5
-36 6 -47 19 -24 26 6 2 -3 14 -20 27 -18 12 -32 27 -32 33 0 7 11 1 25 -12
14 -13 25 -20 25 -15 0 4 -16 24 -36 43 -27 26 -33 29 -24 13 9 -18 9 -22 0
-16 -7 4 -21 27 -32 51 -17 40 -35 63 -22 30 7 -19 -16 -32 -27 -15 -7 12 -9
11 -9 -1 0 -22 35 -93 52 -108 13 -10 17 -9 22 10 5 19 8 20 15 8 7 -9 6 -19
-1 -28 -13 -15 -9 -18 47 -49 33 -19 162 -24 205 -9 22 8 23 7 11 -8 -7 -9
-21 -16 -30 -17 -12 0 -11 -2 4 -9 26 -11 37 -12 31 -2 -2 4 4 8 15 8 19 0 19
-1 3 -13 -10 -7 -22 -13 -27 -13 -5 0 3 -10 19 -22 16 -12 33 -28 37 -35 13
-21 36 -15 42 12 3 14 7 36 10 50 4 16 1 25 -7 25 -9 1 -8 4 3 13 8 7 19 19
23 27 4 8 13 26 21 40 13 23 14 23 21 5 4 -11 19 -35 32 -53 25 -32 25 -34 9
-62 -9 -15 -17 -35 -17 -44 0 -9 -6 -16 -13 -16 -7 0 -13 -9 -13 -20 0 -16 7
-20 31 -20 16 -1 44 -7 60 -15 30 -13 30 -13 5 -15 -14 -1 -37 -1 -52 0 -20 1
-28 -3 -28 -14 0 -15 11 -20 38 -17 7 1 15 -5 18 -13 5 -12 9 -13 25 -3 10 6
19 17 19 24 0 15 19 17 40 3 12 -8 12 -10 -5 -11 -11 0 -14 -3 -7 -6 6 -2 12
-12 13 -21 0 -12 3 -10 9 6 13 32 32 28 24 -5 -6 -24 -5 -26 8 -16 8 7 18 10
21 6 4 -3 13 0 22 7 12 10 15 10 15 -4 0 -9 -7 -19 -15 -22 -21 -9 -19 -20 5
-20 11 0 20 4 20 9 0 4 5 5 10 2 6 -3 10 -14 10 -23 0 -13 10 -17 40 -18 22
-1 37 2 35 6 -3 5 -1 11 5 15 5 3 10 1 10 -4 0 -19 35 -12 48 9 7 11 20 20 31
20 10 0 26 9 36 20 10 11 29 20 42 20 12 0 23 4 23 8 0 5 10 18 21 31 15 16
24 20 32 12 8 -8 15 -5 25 11 13 22 13 22 8 -7 -3 -16 -9 -76 -12 -133 -7 -98
-8 -102 -25 -86 -25 23 -47 11 -52 -28 l-3 -33 -8 30 c-8 34 -46 45 -46 13 0
-24 -17 -32 -24 -10 -7 21 -46 24 -46 4 0 -12 -3 -12 -15 -2 -9 7 -22 9 -32 5
-10 -5 -35 -10 -56 -11 -21 -2 -45 -11 -54 -19 -12 -12 -18 -13 -29 -4 -12 9
-14 5 -14 -22 l-1 -34 -19 24 -20 23 0 -26 c0 -23 -3 -26 -27 -22 -16 3 -66
10 -113 16 -103 12 -311 22 -235 11 66 -10 14 -13 -78 -4 -46 4 -64 9 -55 15
8 6 -38 7 -122 4 -273 -11 -528 -15 -447 -7 43 5 80 11 82 13 3 2 -59 2 -137
0 -128 -4 -141 -3 -135 12 5 12 0 16 -18 16 -16 0 -25 6 -25 15 0 8 -4 15 -8
15 -5 0 -7 14 -4 30 2 17 -1 37 -8 44 -8 11 -8 20 -1 35 15 26 14 64 -1 79 -7
7 -8 12 -2 12 5 0 15 -5 22 -12 9 -9 12 -8 12 4 0 11 6 15 19 11 12 -3 20 2
24 16 3 14 0 21 -9 21 -20 0 -17 18 4 23 9 3 39 8 66 12 34 5 45 10 38 17 -14
14 3 48 23 48 12 0 13 4 4 18 -11 18 -49 25 -46 9 1 -5 -4 -12 -12 -15 -10 -3
-13 3 -9 27 2 17 2 31 -1 31 -3 0 -7 14 -8 30 -1 17 2 30 7 30 6 0 10 -5 10
-11 0 -5 4 -8 9 -5 5 4 8 14 6 24 -2 9 -4 20 -4 25 -2 14 -21 7 -21 -8 0 -8
-5 -15 -11 -15 -5 0 -7 5 -4 10 3 6 0 13 -8 16 -19 7 -15 65 6 78 21 14 33 0
17 -19 -7 -9 -10 -18 -7 -21 11 -12 26 7 33 41 3 19 10 33 14 30 17 -10 39 8
45 36 4 16 11 29 16 29 5 0 9 7 9 15 0 18 26 20 33 3 2 -7 -5 -23 -16 -35 -18
-20 -18 -23 -4 -23 9 0 17 6 17 13 0 17 44 59 53 50 4 -3 7 -1 7 4 0 7 -20 11
-50 10 -55 -1 -73 7 -41 18 12 3 19 10 16 15 -3 4 4 6 15 3 14 -4 20 0 20 12
0 12 5 15 16 11 9 -3 22 -6 30 -6z m-102 -22 c-3 -5 -12 -4 -20 3 -19 16 -18
18 6 12 11 -3 17 -9 14 -15z m-70 -43 c-26 -19 -31 -9 -8 16 11 12 20 16 22 9
2 -6 -4 -17 -14 -25z m-35 -51 c-17 -21 -31 -17 -19 6 6 11 15 18 21 14 6 -4
6 -11 -2 -20z m-264 -14 c-3 -5 -16 -15 -28 -21 -22 -12 -22 -12 -3 10 19 21
43 30 31 11z m315 0 c0 -5 -5 -10 -11 -10 -5 0 -7 5 -4 10 3 6 8 10 11 10 2 0
4 -4 4 -10z m671 -17 c13 -17 13 -17 -6 -3 -11 8 -22 16 -24 17 -2 2 0 3 6 3
6 0 17 -8 24 -17z m459 -4 c0 -6 -4 -7 -10 -4 -5 3 -10 11 -10 16 0 6 5 7 10
4 6 -3 10 -11 10 -16z m-1180 2 c0 -5 -6 -14 -14 -20 -16 -13 -32 2 -21 19 8
12 35 13 35 1z m905 -11 c3 -5 1 -10 -4 -10 -6 0 -11 5 -11 10 0 6 2 10 4 10
3 0 8 -4 11 -10z m-1205 -14 c0 -2 -7 -7 -16 -10 -8 -3 -12 -2 -9 4 6 10 25
14 25 6z m-21 -39 c-2 -1 -14 -11 -26 -21 -13 -11 -23 -16 -23 -13 0 10 31 37
42 37 6 0 9 -1 7 -3z m866 -7 c3 -5 -1 -10 -9 -10 -9 0 -16 5 -16 10 0 6 4 10
9 10 6 0 13 -4 16 -10z m193 -37 c-27 -26 -28 -26 -48 -8 -30 27 -25 35 27 35
l48 0 -27 -27z m-178 -13 c-9 -6 -17 -5 -22 3 -9 15 14 29 27 16 6 -6 5 -13
-5 -19z m246 4 c-11 -10 -14 -24 -10 -38 6 -21 6 -21 -9 -1 -14 18 -14 22 5
42 12 13 23 21 26 18 2 -2 -3 -11 -12 -21z m119 -26 c-8 -26 -32 -54 -40 -47
-7 8 25 69 36 69 6 0 7 -10 4 -22z m204 -20 c4 7 12 3 20 -11 13 -20 13 -21
-2 -8 -17 14 -23 3 -9 -15 4 -5 -1 -1 -10 9 -10 11 -18 24 -17 31 0 6 3 5 6
-3 4 -9 8 -10 12 -3z m-184 -27 c-18 -36 -33 -47 -30 -23 3 29 17 52 31 52 12
0 12 -4 -1 -29z m-85 15 c0 -3 -4 -8 -10 -11 -5 -3 -10 -1 -10 4 0 6 5 11 10
11 6 0 10 -2 10 -4z m254 -45 c-5 -6 -33 31 -33 44 -1 6 8 -1 19 -15 10 -14
17 -27 14 -29z m-1207 -147 c-3 -3 -12 -4 -19 -1 -8 3 -5 6 6 6 11 1 17 -2 13
-5z m-121 -111 c5 -27 6 -66 3 -88 -5 -34 -6 -29 -8 28 0 37 -5 67 -11 67 -5
0 -10 9 -10 20 0 38 17 20 26 -27z m-79 5 c-3 -7 -5 -2 -5 12 0 14 2 19 5 13
2 -7 2 -19 0 -25z m110 -35 c-3 -10 -5 -2 -5 17 0 19 2 27 5 18 2 -10 2 -26 0
-35z m43 17 c0 -11 -2 -20 -4 -20 -2 0 -6 9 -9 20 -3 11 -1 20 4 20 5 0 9 -9
9 -20z m-133 -27 c-3 -10 -5 -4 -5 12 0 17 2 24 5 18 2 -7 2 -21 0 -30z m20
-60 c-2 -21 -4 -6 -4 32 0 39 2 55 4 38 2 -18 2 -50 0 -70z m70 -10 c-3 -10
-5 -4 -5 12 0 17 2 24 5 18 2 -7 2 -21 0 -30z m43 17 c0 -11 -2 -20 -4 -20 -2
0 -6 9 -9 20 -3 11 -1 20 4 20 5 0 9 -9 9 -20z m-153 -72 c-3 -7 -5 -2 -5 12
0 14 2 19 5 13 2 -7 2 -19 0 -25z m73 12 c0 -11 -4 -20 -10 -20 -5 0 -10 9
-10 20 0 11 5 20 10 20 6 0 10 -9 10 -20z m1215 -90 c31 -7 24 -7 -30 -3 -38
3 -72 7 -74 9 -8 7 64 3 104 -6z m435 -4 c0 -2 -7 -6 -15 -10 -8 -3 -15 -1
-15 4 0 6 7 10 15 10 8 0 15 -2 15 -4z m70 -40 c0 -9 -7 -12 -20 -9 -31 8 -34
23 -6 23 16 0 26 -6 26 -14z m70 -31 c-10 -12 -16 -13 -26 -4 -20 16 -18 19
12 19 22 0 25 -2 14 -15z m-250 -12 c0 -10 -5 -25 -10 -33 -7 -11 -10 -7 -10
18 0 17 5 32 10 32 6 0 10 -8 10 -17z m338 -13 c6 0 12 -4 12 -9 0 -14 -64 -5
-68 9 -3 9 2 11 19 7 13 -4 30 -7 37 -7z m-2181 -47 c-3 -10 -5 -2 -5 17 0 19
2 27 5 18 2 -10 2 -26 0 -35z m43 2 c0 -5 -5 -3 -10 5 -5 8 -10 20 -10 25 0 6
5 3 10 -5 5 -8 10 -19 10 -25z m-280 -15 c0 -5 -2 -10 -4 -10 -3 0 -8 5 -11
10 -3 6 -1 10 4 10 6 0 11 -4 11 -10z m452 -74 c10 -7 27 -34 39 -60 26 -59
27 -137 4 -230 l-18 -68 -21 23 c-66 74 -96 154 -96 256 0 72 48 113 92 79z
m-412 -56 c0 -5 -5 -10 -11 -10 -5 0 -7 5 -4 10 3 6 8 10 11 10 2 0 4 -4 4
-10z m275 -26 c2 -11 10 -47 18 -81 15 -63 8 -92 -13 -53 -12 23 -27 169 -16
159 4 -4 8 -15 11 -25z m1768 -119 c-3 -9 -8 -14 -10 -11 -3 3 -2 9 2 15 9 16
15 13 8 -4z m-858 -152 c-39 -6 -52 -19 -27 -27 11 -4 37 0 58 9 20 8 39 13
42 10 3 -3 -1 -5 -9 -6 -8 0 -3 -5 11 -11 14 -6 20 -12 14 -14 -6 -3 -8 -18
-6 -36 3 -20 1 -29 -6 -24 -6 3 -13 2 -17 -4 -3 -5 -2 -10 3 -10 6 0 8 -9 5
-21 -4 -12 -11 -18 -20 -15 -11 5 -14 -2 -11 -32 3 -32 0 -37 -17 -34 -29 5
-43 21 -27 31 11 7 11 9 -1 14 -10 4 -17 -3 -20 -22 -5 -25 -10 -28 -42 -25
-20 1 -43 8 -51 14 -11 10 -17 10 -29 0 -28 -23 -17 10 16 48 27 31 29 36 15
44 -9 5 -25 7 -35 3 -10 -3 -24 1 -31 10 -7 8 -19 15 -27 15 -8 0 -13 6 -10
13 3 8 23 11 63 9 40 -1 54 1 44 7 -12 8 -8 13 20 25 l35 16 -52 -6 c-35 -4
-53 -3 -53 4 0 13 36 19 125 19 39 0 57 -2 40 -4z m125 -52 c0 -5 -7 -12 -16
-15 -14 -5 -15 -4 -4 9 14 17 20 19 20 6z m70 -6 c7 -8 8 -15 2 -15 -5 0 -15
7 -22 15 -7 8 -8 15 -2 15 5 0 15 -7 22 -15z m-10 -114 c0 -5 -7 -11 -14 -14
-10 -4 -13 -1 -9 9 6 15 23 19 23 5z m-419 -38 c13 -16 12 -17 -3 -4 -17 13
-22 21 -14 21 2 0 10 -8 17 -17z m279 -67 l45 -14 -60 -6 c-33 -4 -69 -9 -81
-11 -37 -8 -35 8 3 26 47 22 40 21 93 5z m30 -236 c0 -5 -5 -10 -11 -10 -5 0
-7 5 -4 10 3 6 8 10 11 10 2 0 4 -4 4 -10z m170 -1280 c0 -5 -4 -10 -10 -10
-5 0 -10 5 -10 10 0 6 5 10 10 10 6 0 10 -4 10 -10z m-254 -217 c-7 -7 -26 7
-26 19 0 6 6 6 15 -2 9 -7 13 -15 11 -17z m374 -123 c0 -5 -8 -10 -17 -10 -15
0 -16 2 -3 10 19 12 20 12 20 0z m4 -34 c7 3 21 -12 31 -33 26 -50 29 -61 13
-42 -7 9 -19 14 -27 11 -8 -3 -20 3 -28 14 -15 21 -17 11 -3 -17 6 -10 17 -19
24 -19 8 0 17 -12 20 -26 8 -31 5 -37 -18 -28 -29 11 -66 106 -46 119 5 3 6
13 3 23 -5 13 -3 14 7 5 7 -6 18 -9 24 -7z m-165 -71 c0 -5 -6 -1 -14 9 -8 11
-15 24 -15 30 0 5 7 1 15 -10 8 -10 14 -23 14 -29z m247 -47 c-9 -5 -14 -13
-11 -19 4 -5 -1 -9 -9 -9 -9 0 -16 3 -16 7 0 12 35 40 44 35 5 -2 1 -9 -8 -14z
m-306 -18 c-20 -13 -43 -13 -35 0 3 6 16 10 28 10 18 0 19 -2 7 -10z m323 -8
c-4 -18 73 -73 93 -65 12 4 15 3 10 -5 -4 -7 -2 -12 3 -12 6 0 11 5 11 12 0 9
3 9 12 0 10 -10 10 -17 1 -31 -6 -10 -9 -35 -6 -55 8 -64 -8 -73 -142 -72 -79
1 -118 5 -127 14 -11 11 -10 12 6 6 16 -6 17 -5 7 15 -12 22 -6 87 10 97 5 3
9 10 9 15 0 7 -22 8 -57 5 -40 -4 -52 -3 -38 3 11 5 52 10 92 10 64 1 72 -1
66 -16 -4 -11 -3 -14 5 -9 7 4 12 16 12 27 0 16 -7 19 -39 19 -22 0 -43 5 -47
11 -4 7 0 9 12 6 51 -14 114 -18 114 -7 0 7 -6 10 -13 7 -8 -3 -14 1 -14 9 0
8 5 14 11 14 6 0 4 5 -4 11 -13 9 -13 10 0 6 8 -2 14 -9 13 -15z m-958 -22
c-3 -5 -11 -10 -16 -10 -6 0 -7 5 -4 10 3 6 11 10 16 10 6 0 7 -4 4 -10z
m1026 -17 c13 -15 12 -15 -8 -4 -24 12 -29 21 -14 21 5 0 15 -7 22 -17z
m-1061 -18 c0 -11 -11 -15 -47 -13 -41 1 -43 2 -13 5 19 3 39 9 45 14 12 12
15 11 15 -6z m270 -31 c0 -8 -4 -12 -10 -9 -5 3 -10 10 -10 16 0 5 5 9 10 9 6
0 10 -7 10 -16z m417 0 c-3 -3 -12 -4 -19 -1 -8 3 -5 6 6 6 11 1 17 -2 13 -5z
m156 -21 c-7 -2 -21 -2 -30 0 -10 3 -4 5 12 5 17 0 24 -2 18 -5z m-406 -49
c-3 -3 -12 -4 -19 -1 -8 3 -5 6 6 6 11 1 17 -2 13 -5z m60 0 c-3 -3 -12 -4
-19 -1 -8 3 -5 6 6 6 11 1 17 -2 13 -5z m16 -21 c-7 -2 -19 -2 -25 0 -7 3 -2
5 12 5 14 0 19 -2 13 -5z m1157 -205 c0 -16 -3 -19 -11 -11 -6 6 -8 16 -5 22
11 17 16 13 16 -11z m-2310 2 c0 -5 -4 -10 -10 -10 -5 0 -10 5 -10 10 0 6 5
10 10 10 6 0 10 -4 10 -10z m467 -66 c-3 -3 -12 -4 -19 -1 -8 3 -5 6 6 6 11 1
17 -2 13 -5z m1870 -66 c-3 -8 -6 -5 -6 6 -1 11 2 17 5 13 3 -3 4 -12 1 -19z
m-2284 -188 c-4 -16 -8 -18 -19 -9 -20 16 -17 29 5 29 14 0 18 -5 14 -20z
m377 -26 c0 -2 -12 -4 -26 -4 -14 0 -23 4 -20 9 6 8 46 4 46 -5z m2014 -76 c8
-68 8 -143 0 -135 -9 8 -21 187 -13 187 3 0 9 -24 13 -52z m-248 -19 c0 -27
-3 -49 -7 -49 -8 0 -17 99 -10 106 10 10 16 -11 17 -57z m-1687 14 c-1 -37 -1
-37 -8 -8 -7 28 -5 45 5 45 2 0 3 -17 3 -37z m-619 -33 c0 -16 -4 -32 -10 -35
-6 -4 -10 10 -10 35 0 25 4 39 10 35 6 -3 10 -19 10 -35z m-5 -69 c3 -5 1 -12
-5 -16 -5 -3 -10 1 -10 9 0 18 6 21 15 7z m625 -1 c0 -5 -4 -10 -10 -10 -5 0
-10 5 -10 10 0 6 5 10 10 10 6 0 10 -4 10 -10z m1690 0 c0 -5 -4 -10 -10 -10
-5 0 -10 5 -10 10 0 6 5 10 10 10 6 0 10 -4 10 -10z m-2172 -67 c-16 -2 -40
-2 -55 0 -16 2 -3 4 27 4 30 0 43 -2 28 -4z m2168 -20 c-10 -10 -115 -10 -109
0 2 4 29 7 60 7 31 0 53 -3 49 -7z m-1236 -43 c-36 -11 -78 -12 -85 -1 -3 6
19 9 52 9 43 -1 51 -3 33 -8z m913 3 c-13 -2 -33 -2 -45 0 -13 2 -3 4 22 4 25
0 35 -2 23 -4z m424 1 c-3 -3 -12 -4 -19 -1 -8 3 -5 6 6 6 11 1 17 -2 13 -5z
m-2279 -11 c-21 -2 -57 -2 -80 0 -24 2 -7 4 37 4 44 0 63 -2 43 -4z m2032 -59
c0 -15 12 -38 31 -56 23 -24 27 -33 17 -39 -10 -7 -10 -9 0 -9 6 0 12 -7 12
-16 0 -8 5 -12 10 -9 21 13 10 -54 -12 -72 -31 -25 -58 -75 -58 -107 0 -22 -5
-26 -27 -26 -27 0 -28 2 -28 48 0 35 4 47 15 47 8 0 21 4 29 9 10 6 12 5 7 -2
-4 -7 -2 -12 3 -12 17 0 13 27 -5 34 -9 4 -22 2 -29 -4 -16 -13 -28 14 -20 41
5 15 9 16 25 6 33 -20 45 3 30 62 -7 28 -16 51 -21 51 -13 0 -11 -54 3 -68 9
-9 8 -12 -8 -12 -18 0 -20 7 -19 70 0 40 -4 70 -10 70 -12 1 -23 -58 -29 -150
-3 -36 -5 -65 -6 -65 -7 0 -6 -36 1 -41 5 -3 9 -22 9 -43 l0 -38 -60 -7 c-33
-4 -65 -4 -71 -1 -6 4 -9 57 -8 138 3 175 1 217 -10 217 -5 0 -12 -15 -16 -32
-11 -57 -16 -68 -26 -63 -5 4 -9 -2 -9 -11 0 -10 3 -15 6 -11 3 3 12 0 19 -6
10 -10 10 -16 -1 -31 -9 -14 -10 -25 -3 -38 5 -10 6 -24 2 -31 -13 -21 -12
-37 3 -37 12 0 12 -4 4 -20 -6 -11 -7 -20 -3 -20 5 0 8 -12 7 -27 -1 -32 16
-31 -357 -35 -162 -2 -206 0 -202 10 2 7 -3 12 -14 12 -28 0 -31 18 -31 162 0
109 2 129 14 125 8 -3 20 0 26 8 9 11 7 12 -8 8 -13 -3 -21 2 -24 15 -4 15
-12 19 -32 15 -15 -3 -23 -10 -20 -17 3 -6 -2 -2 -10 8 -15 18 -16 5 -16 -167
l0 -186 -182 4 c-101 2 -232 4 -291 4 -67 1 -106 5 -102 11 7 11 8 330 1 337
-2 2 -25 6 -50 7 -26 2 -50 6 -53 10 -4 3 354 6 795 6 l802 0 0 -26z m22 4
c-7 -7 -12 -8 -12 -2 0 6 3 14 7 17 3 4 9 5 12 2 2 -3 -1 -11 -7 -17z m153 4
c3 -8 -3 -16 -15 -19 -17 -4 -20 -16 -23 -87 l-3 -81 -2 100 c-2 94 -1 101 18
101 11 0 22 -6 25 -14z m-2115 -13 c0 -5 -7 -9 -15 -9 -8 0 -15 7 -15 15 0 9
6 12 15 9 8 -4 15 -10 15 -15z m2008 3 c2 -7 -3 -12 -12 -12 -9 0 -16 7 -16
16 0 17 22 14 28 -4z m-1921 -18 c-9 -9 -28 6 -21 18 4 6 10 6 17 -1 6 -6 8
-13 4 -17z m1898 -14 c3 -5 1 -10 -4 -10 -6 0 -11 5 -11 10 0 6 2 10 4 10 3 0
8 -4 11 -10z m32 -42 c-3 -7 -5 -2 -5 12 0 14 2 19 5 13 2 -7 2 -19 0 -25z
m79 -211 c20 -12 17 -27 -6 -27 -17 0 -20 6 -19 48 2 34 3 38 6 17 3 -16 11
-34 19 -38z m-76 -6 c-11 -22 -25 -27 -35 -12 -5 10 35 44 43 37 2 -3 -1 -14
-8 -25z m-2022 -10 c3 -8 -1 -12 -9 -9 -7 2 -15 10 -17 17 -3 8 1 12 9 9 7 -2
15 -10 17 -17z m92 4 c10 -12 10 -15 -4 -15 -9 0 -16 7 -16 15 0 8 2 15 4 15
2 0 9 -7 16 -15z m1020 -45 c0 -5 -2 -10 -4 -10 -3 0 -8 5 -11 10 -3 6 -1 10
4 10 6 0 11 -4 11 -10z m335 -30 c3 -5 -3 -10 -14 -10 -12 0 -21 5 -21 10 0 6
6 10 14 10 8 0 18 -4 21 -10z m-1895 -70 c0 -36 -4 -50 -14 -50 -15 0 -28 -78
-19 -122 6 -34 20 -36 26 -5 2 12 5 -11 6 -50 1 -58 -2 -73 -14 -73 -9 0 -12
6 -9 15 4 8 0 23 -7 32 -9 10 -15 53 -18 125 -3 97 -1 111 15 123 16 12 17 17
6 34 -11 19 -10 21 8 21 17 0 20 -7 20 -50z m2329 -34 c2 -81 1 -83 -21 -82
-13 1 -39 -1 -58 -4 -43 -8 -60 7 -56 46 2 16 1 33 -2 39 -3 5 -5 25 -3 43 2
25 -1 33 -11 29 -7 -2 -12 -10 -10 -17 1 -7 -2 -18 -8 -24 -5 -7 -7 -16 -3
-20 4 -4 3 -10 -3 -14 -6 -4 -7 -18 -3 -32 5 -19 7 -20 8 -6 1 11 3 17 6 14 9
-9 -6 -59 -15 -53 -17 11 -21 -17 -6 -34 22 -24 20 -30 -10 -42 -15 -5 -24
-13 -20 -17 11 -10 30 -9 37 1 4 5 6 -18 5 -51 l-1 -59 -70 -6 c-38 -4 -178
-5 -310 -4 l-240 2 -3 182 -2 182 27 4 c16 2 195 5 399 6 l371 1 2 -84z m74
57 c-2 -16 3 -49 11 -76 13 -44 13 -48 -4 -57 -32 -17 -48 9 -52 88 -4 72 -4
72 22 72 23 0 26 -4 23 -27z m74 4 c-6 -20 -27 -19 -27 2 0 14 5 19 15 14 9
-3 14 -10 12 -16z m-2030 -13 c-9 -9 -28 6 -21 18 4 6 10 6 17 -1 6 -6 8 -13
4 -17z m1033 11 c0 -8 1 -87 1 -175 0 -88 -1 -166 -1 -174 0 -11 -47 -13 -277
-11 -153 1 -283 3 -290 4 -8 1 -13 31 -15 90 -2 71 0 87 10 79 9 -8 12 -5 12
10 0 11 -5 22 -11 24 -10 3 -15 32 -18 115 -1 41 -2 42 -38 46 -21 2 112 4
295 5 289 2 332 0 332 -13z m1080 -6 c0 -14 -27 -10 -33 5 -4 10 0 12 14 9 10
-3 19 -9 19 -14z m400 11 c0 -5 -5 -10 -11 -10 -5 0 -7 5 -4 10 3 6 8 10 11
10 2 0 4 -4 4 -10z m-2413 -26 c-9 -9 -28 6 -21 18 4 6 10 6 17 -1 6 -6 8 -13
4 -17z m1980 -81 c-3 -10 -5 -2 -5 17 0 19 2 27 5 18 2 -10 2 -26 0 -35z m0
-45 c-3 -8 -6 -5 -6 6 -1 11 2 17 5 13 3 -3 4 -12 1 -19z m-241 -27 c40 7 44
0 44 -80 0 -89 -1 -91 -92 -91 l-48 0 0 48 c0 55 14 76 41 62 21 -12 37 6 20
23 -8 8 -11 8 -11 0 0 -15 -37 -4 -44 13 -5 13 8 27 32 30 6 1 12 -2 12 -7 0
-6 5 -7 10 -4 6 4 7 12 3 18 -4 8 -1 8 9 -1 9 -7 20 -12 24 -11z m127 -54 c-7
-28 -13 -60 -13 -70 0 -10 -5 -15 -10 -12 -6 4 -8 28 -5 61 4 37 3 54 -5 54
-6 0 -8 -5 -4 -12 4 -7 3 -8 -4 -4 -18 11 -15 39 3 33 8 -4 17 -2 20 3 3 5 12
7 19 4 11 -4 10 -14 -1 -57z m-1955 -83 c-10 -10 -28 6 -28 24 0 15 1 15 17
-1 9 -9 14 -19 11 -23z m2022 21 c0 -8 -7 -15 -15 -15 -8 0 -15 7 -15 15 0 8
7 15 15 15 8 0 15 -7 15 -15z m80 -12 c0 -7 -7 -13 -15 -13 -8 0 -15 6 -15 13
0 8 7 14 15 14 8 0 15 -6 15 -14z m-2020 -8 c10 -12 10 -15 -4 -15 -9 0 -16 7
-16 15 0 8 2 15 4 15 2 0 9 -7 16 -15z m1767 -174 l3 -83 -25 5 c-14 2 -28 1
-30 -3 -3 -5 -13 -7 -23 -5 -9 2 -22 4 -29 4 -8 1 -12 14 -11 34 5 81 -2 117
-20 117 -15 0 -17 -6 -14 -36 4 -29 1 -36 -16 -40 -14 -4 -18 -12 -15 -25 3
-11 8 -17 11 -14 6 6 32 -14 32 -26 0 -5 -6 -8 -12 -6 -7 1 -14 -8 -16 -20 -2
-16 2 -23 13 -23 12 0 14 -4 5 -19 -6 -12 -18 -18 -34 -17 -18 2 -23 -1 -18
-12 3 -10 1 -13 -6 -8 -7 4 -12 3 -12 -2 0 -6 17 -9 39 -7 l39 2 0 -47 0 -48
-46 -6 c-24 -3 -155 -6 -290 -6 -194 0 -242 3 -234 13 8 9 4 12 -14 12 -15 0
-22 -5 -19 -12 2 -7 -2 -13 -10 -13 -13 0 -15 29 -15 185 l0 185 168 2 c92 2
264 3 382 3 l215 0 2 -84z m183 64 c0 -3 -9 -5 -20 -5 -11 0 -20 7 -20 15 0
13 4 14 20 5 11 -6 20 -13 20 -15z m80 0 c0 -3 -9 -5 -20 -5 -11 0 -20 7 -20
15 0 13 4 14 20 5 11 -6 20 -13 20 -15z m-1090 -175 l0 -190 -292 2 -293 3 0
35 c0 19 3 40 8 47 5 7 4 19 -1 29 -5 9 -7 25 -4 36 4 18 5 18 18 1 12 -17 13
-16 14 5 0 15 -6 22 -20 22 -21 0 -26 10 -12 26 5 5 6 46 3 92 l-6 82 293 0
292 0 0 -190z m-1030 165 c0 -8 -4 -15 -9 -15 -13 0 -22 16 -14 24 11 11 23 6
23 -9z m87 -11 c-9 -9 -28 6 -21 18 4 6 10 6 17 -1 6 -6 8 -13 4 -17z m1707
-157 c3 3 6 0 6 -7 0 -10 3 -11 11 -3 6 6 19 9 29 6 15 -4 18 -16 17 -76 0
-42 -4 -75 -11 -79 -6 -4 -32 -8 -58 -8 l-48 0 0 44 c0 49 11 61 52 58 18 -2
28 3 28 11 0 9 -12 14 -31 15 -35 1 -63 21 -41 29 6 3 9 9 6 15 -4 6 1 6 13
-1 11 -6 23 -7 27 -4z m293 -19 c-3 -7 -5 -2 -5 12 0 14 2 19 5 13 2 -7 2 -19
0 -25z m-2547 -83 c0 -19 -4 -35 -8 -35 -4 0 -6 16 -4 35 2 19 6 35 8 35 2 0
4 -16 4 -35z m2575 -16 c-11 -17 -35 -9 -35 11 0 18 3 19 20 10 11 -6 18 -15
15 -21z m-2120 -19 c-5 -8 -11 -8 -17 -2 -6 6 -7 16 -3 22 5 8 11 8 17 2 6 -6
7 -16 3 -22z m2037 8 c-12 -12 -35 -1 -27 12 3 5 13 6 21 3 10 -4 12 -9 6 -15z
m-1937 -8 c3 -5 -1 -10 -9 -10 -9 0 -16 5 -16 10 0 6 4 10 9 10 6 0 13 -4 16
-10z m-558 -82 c-3 -8 -6 -5 -6 6 -1 11 2 17 5 13 3 -3 4 -12 1 -19z m2583
-17 c0 -14 -12 -20 -26 -14 -22 8 -17 32 6 26 11 -3 20 -9 20 -12z m-2118 -6
c0 -5 -5 -11 -11 -13 -6 -2 -11 4 -11 13 0 9 5 15 11 13 6 -2 11 -8 11 -13z
m95 -22 c-11 -10 -26 8 -20 23 5 15 7 14 15 -1 6 -9 7 -19 5 -22z m831 29
l122 -4 0 -184 0 -184 -62 -1 c-35 -1 -108 -1 -163 -1 -55 1 -171 1 -258 1
l-158 1 2 85 c2 65 6 84 16 81 8 -3 13 2 13 13 0 11 -6 21 -12 23 -9 3 -12 27
-9 81 3 75 2 77 -21 78 l-23 1 25 8 c27 9 331 10 528 2z m937 -2 c-17 -7 -18
-9 -2 -9 13 -1 17 -9 16 -38 -1 -34 -2 -35 -9 -13 -6 20 -8 16 -9 -23 -1 -30
3 -46 9 -42 6 3 10 2 10 -3 0 -13 -59 -34 -72 -26 -6 4 -13 2 -17 -3 -9 -15
-51 3 -51 21 0 10 6 13 15 10 11 -5 15 1 15 20 0 14 -5 26 -11 26 -6 0 -9 -7
-5 -15 3 -8 1 -15 -4 -15 -6 0 -10 25 -10 55 0 44 -3 55 -16 55 -13 0 -15 -9
-13 -44 3 -30 0 -42 -7 -39 -7 2 -15 0 -18 -5 -9 -15 4 -42 20 -42 11 0 12 -4
4 -19 -5 -11 -10 -33 -10 -50 0 -17 -4 -31 -10 -31 -5 0 -10 -5 -10 -11 0 -5
5 -7 10 -4 6 3 10 -1 10 -9 0 -9 5 -16 11 -16 8 0 8 -4 -1 -14 -6 -8 -10 -28
-8 -43 l3 -28 -105 -7 c-218 -13 -482 -16 -485 -4 -2 6 -6 83 -10 170 -5 142
-4 158 9 146 18 -14 46 -7 46 12 0 10 -2 10 -9 -1 -7 -10 -13 -11 -30 -2 -28
15 -27 39 2 43 54 8 761 7 742 -2z m185 1 c0 -14 -18 -23 -30 -16 -6 4 -8 11
-5 16 8 12 35 12 35 0z m37 -83 c-3 -8 -6 -5 -6 6 -1 11 2 17 5 13 3 -3 4 -12
1 -19z m-246 -111 c11 -1 14 -8 11 -26 -5 -25 -5 -25 -13 -3 -5 12 -10 22 -11
22 -2 0 -2 -32 0 -70 2 -39 8 -68 13 -64 5 3 9 0 9 -5 0 -7 -23 -11 -55 -11
l-55 0 0 39 c0 39 20 68 40 56 6 -4 10 3 10 17 0 15 -3 19 -8 11 -12 -19 -45
7 -37 28 5 12 15 15 43 11 20 -2 44 -5 53 -5z m208 -101 c8 -10 9 -16 1 -21
-13 -8 -30 3 -30 21 0 18 14 18 29 0z m-2041 -14 c2 -7 -3 -12 -12 -12 -9 0
-16 7 -16 16 0 17 22 14 28 -4z m2112 3 c0 -8 -7 -15 -15 -15 -8 0 -15 7 -15
15 0 8 7 15 15 15 8 0 15 -7 15 -15z m-2020 -21 c0 -14 -12 -19 -23 -8 -9 9 4
35 14 28 5 -3 9 -12 9 -20z m-93 -201 c-1 -127 -1 -127 -4 -23 -3 79 -7 107
-18 113 -20 11 -19 25 3 30 9 3 18 5 18 6 1 0 2 -56 1 -126z m1041 112 c2 -2
5 -324 3 -363 -1 -11 -54 -13 -303 -7 -166 3 -306 9 -311 12 -12 7 3 156 17
165 6 4 7 8 2 8 -5 0 -3 7 4 16 11 12 11 15 -1 12 -11 -2 -15 15 -19 77 l-5
80 -35 6 c-19 3 118 3 305 1 187 -2 341 -5 343 -7z m811 0 c2 -3 -5 -5 -16 -5
-18 0 -20 -7 -22 -72 -2 -77 -8 -88 -47 -80 -22 4 -36 32 -15 32 10 0 8 27 -3
53 -5 9 -5 28 -2 42 6 22 3 25 -19 25 -20 0 -25 -5 -25 -24 0 -13 6 -26 13
-29 8 -3 7 -10 -7 -26 -18 -20 -18 -22 -1 -41 10 -11 14 -21 9 -21 -5 -1 -16
-2 -24 -3 -8 0 -16 -11 -18 -24 -3 -20 0 -23 20 -20 22 3 23 0 24 -62 0 -86 1
-90 20 -90 12 0 15 10 13 48 -1 26 1 54 5 60 4 7 3 18 -3 25 -6 8 -6 18 -1 27
6 10 10 11 10 3 0 -7 7 -10 15 -7 8 4 15 1 15 -6 0 -6 5 -8 10 -5 6 3 10 1 10
-5 0 -6 -11 -15 -25 -20 -33 -13 -33 -34 1 -27 19 3 24 1 20 -10 -3 -8 -6 -32
-6 -52 l0 -38 -102 -6 c-57 -4 -214 -10 -350 -13 l-248 -7 0 192 0 191 328 2
c328 3 412 1 421 -7z m189 -3 c2 -7 -3 -12 -12 -12 -9 0 -16 7 -16 16 0 17 22
14 28 -4z m82 -6 c0 -2 -9 -6 -20 -9 -15 -4 -20 0 -20 14 0 17 3 18 20 9 11
-6 20 -12 20 -14z m-2022 -4 c2 -7 -3 -12 -12 -12 -9 0 -16 7 -16 16 0 17 22
14 28 -4z m1989 -74 c-2 -13 -4 -5 -4 17 -1 22 1 32 4 23 2 -10 2 -28 0 -40z
m-260 -15 c-3 -10 -5 -2 -5 17 0 19 2 27 5 18 2 -10 2 -26 0 -35z m260 -45
c-3 -7 -5 -2 -5 12 0 14 2 19 5 13 2 -7 2 -19 0 -25z m-400 -30 c-3 -8 -6 -5
-6 6 -1 11 2 17 5 13 3 -3 4 -12 1 -19z m400 -55 c-3 -10 -5 -4 -5 12 0 17 2
24 5 18 2 -7 2 -21 0 -30z m-49 -70 c-4 -22 -22 -20 -26 1 -2 10 3 16 13 16
10 0 15 -7 13 -17z m-2050 -11 c2 -7 -3 -12 -12 -12 -9 0 -16 7 -16 16 0 17
22 14 28 -4z m102 3 c10 -12 10 -15 -4 -15 -9 0 -16 7 -16 15 0 8 2 15 4 15 2
0 9 -7 16 -15z m2028 4 c-2 -6 -8 -10 -13 -10 -5 0 -11 4 -13 10 -2 6 4 11 13
11 9 0 15 -5 13 -11z m-1080 -114 c9 -3 12 -51 12 -191 l0 -186 -252 3 c-139
2 -269 6 -288 9 l-35 5 -1 95 c-1 52 -4 133 -7 180 -3 46 -2 87 3 90 10 6 549
1 568 -5z m-1561 -32 c-3 -10 -5 -4 -5 12 0 17 2 24 5 18 2 -7 2 -21 0 -30z
m2336 30 c-7 -2 -13 -20 -13 -38 0 -37 -9 -43 -61 -39 -33 2 -36 0 -36 -22 0
-19 5 -24 23 -24 13 0 24 6 25 13 0 10 2 10 6 0 2 -7 14 -13 26 -13 l21 0 -20
-14 c-12 -9 -36 -13 -60 -11 -47 4 -54 1 -47 -26 4 -16 8 -18 14 -7 7 10 11
10 17 1 4 -7 25 -11 50 -9 31 2 40 0 32 -8 -10 -12 -3 -56 9 -56 4 0 7 -12 7
-27 0 -16 2 -39 5 -53 4 -24 2 -25 -71 -31 -41 -4 -200 -10 -352 -14 l-278 -8
0 186 c0 103 1 187 3 187 1 0 112 3 247 7 135 3 247 7 249 9 2 2 52 4 110 3
58 0 100 -3 94 -6z m-1693 -24 c0 -5 -7 -9 -15 -9 -15 0 -20 12 -9 23 8 8 24
-1 24 -14z m-155 2 c3 -5 1 -12 -5 -16 -5 -3 -10 1 -10 9 0 18 6 21 15 7z
m2055 -6 c0 -8 -4 -15 -9 -15 -13 0 -22 16 -14 24 11 11 23 6 23 -9z m-2463
-127 c-3 -8 -6 -5 -6 6 -1 11 2 17 5 13 3 -3 4 -12 1 -19z m413 -133 c0 -8 -4
-15 -10 -15 -5 0 -10 7 -10 15 0 8 5 15 10 15 6 0 10 -7 10 -15z m150 -6 c0
-5 -7 -9 -15 -9 -15 0 -20 12 -9 23 8 8 24 -1 24 -14z m1896 -4 c-3 -9 -11
-13 -16 -10 -8 5 -7 11 1 21 14 18 24 11 15 -11z m-203 -532 c-13 -2 -33 -2
-45 0 -13 2 -3 4 22 4 25 0 35 -2 23 -4z m-1016 -19 c-3 -3 -12 -4 -19 -1 -8
3 -5 6 6 6 11 1 17 -2 13 -5z m-294 -41 c-7 -2 -21 -2 -30 0 -10 3 -4 5 12 5
17 0 24 -2 18 -5z m44 1 c-3 -3 -12 -4 -19 -1 -8 3 -5 6 6 6 11 1 17 -2 13 -5z
m203 -4 c0 -5 -9 -10 -21 -10 -11 0 -17 5 -14 10 3 6 13 10 21 10 8 0 14 -4
14 -10z m140 6 c0 -11 -19 -15 -25 -6 -3 5 1 10 9 10 9 0 16 -2 16 -4z m30 -6
c0 -5 -2 -10 -4 -10 -3 0 -8 5 -11 10 -3 6 -1 10 4 10 6 0 11 -4 11 -10z m53
3 c-7 -2 -21 -2 -30 0 -10 3 -4 5 12 5 17 0 24 -2 18 -5z m-495 -420 c-10 -2
-28 -2 -40 0 -13 2 -5 4 17 4 22 1 32 -1 23 -4z m235 0 c-7 -2 -21 -2 -30 0
-10 3 -4 5 12 5 17 0 24 -2 18 -5z m205 0 c-10 -2 -28 -2 -40 0 -13 2 -5 4 17
4 22 1 32 -1 23 -4z m215 0 c-13 -2 -35 -2 -50 0 -16 2 -5 4 22 4 28 0 40 -2
28 -4z m100 0 c-13 -2 -33 -2 -45 0 -13 2 -3 4 22 4 25 0 35 -2 23 -4z"/>
<path d="M1817 8348 c-2 -7 -1 -22 3 -33 6 -16 8 -13 7 13 0 35 -2 39 -10 20z"/>
<path d="M1324 8336 c-34 -15 -44 -32 -44 -77 0 -26 4 -29 30 -29 17 0 30 4
30 9 0 5 -11 8 -25 5 -28 -5 -33 7 -10 26 8 7 15 18 15 26 0 14 34 37 42 29 3
-3 5 2 5 10 0 18 -3 18 -43 1z"/>
<path d="M1660 8331 c0 -6 5 -13 10 -16 6 -3 10 1 10 9 0 9 -4 16 -10 16 -5 0
-10 -4 -10 -9z"/>
<path d="M1388 8283 c7 -3 16 -2 19 1 4 3 -2 6 -13 5 -11 0 -14 -3 -6 -6z"/>
<path d="M1680 8245 c0 -8 -4 -15 -10 -15 -5 0 -7 -7 -3 -16 4 -10 8 -12 13
-4 3 6 15 8 25 4 17 -7 17 -6 0 19 -20 31 -25 33 -25 12z"/>
<path d="M1730 8254 c0 -6 7 -19 16 -30 14 -18 14 -18 3 6 -14 31 -19 36 -19
24z"/>
<path d="M1320 8210 c0 -5 7 -10 16 -10 8 0 12 5 9 10 -3 6 -10 10 -16 10 -5
0 -9 -4 -9 -10z"/>
<path d="M1743 8162 c4 -6 22 -21 39 -34 17 -12 28 -17 25 -10 -4 6 -22 21
-39 34 -17 12 -28 17 -25 10z"/>
<path d="M2173 7993 c9 -2 23 -2 30 0 6 3 -1 5 -18 5 -16 0 -22 -2 -12 -5z"/>
<path d="M2063 7983 c15 -2 37 -2 50 0 12 2 0 4 -28 4 -27 0 -38 -2 -22 -4z"/>
<path d="M2141 7976 c2 -2 29 -6 59 -9 36 -4 46 -3 30 3 -25 8 -97 13 -89 6z"/>
<path d="M2160 7947 c0 -9 -8 -18 -17 -20 -17 -4 -17 -5 0 -6 9 0 17 -6 17
-12 0 -8 4 -8 14 0 8 7 13 19 12 28 -3 22 -26 30 -26 10z"/>
<path d="M1160 7905 c0 -8 5 -15 10 -15 6 0 10 -28 10 -65 0 -37 -4 -65 -10
-65 -6 0 -10 27 -10 60 0 33 -4 60 -10 60 -17 0 -16 -97 1 -114 5 -6 9 -20 9
-33 0 -18 5 -23 28 -23 15 0 34 5 42 10 13 8 12 10 -2 10 -25 0 -22 19 5 30
12 5 16 9 10 9 -7 1 -13 9 -13 19 0 11 -9 27 -21 38 -16 14 -20 28 -17 56 3
31 0 38 -14 38 -10 0 -18 -7 -18 -15z m52 -130 c-7 -38 -22 -30 -22 11 0 30 3
34 14 25 7 -6 11 -22 8 -36z"/>
<path d="M2270 7895 c0 -3 11 -10 24 -15 14 -5 26 -19 29 -32 3 -15 5 -10 6
15 1 35 -1 37 -29 37 -16 0 -30 -2 -30 -5z"/>
<path d="M2370 7890 c-10 -6 -14 -24 -12 -57 1 -29 -2 -43 -7 -35 -4 8 -19 12
-32 10 l-24 -4 27 -12 c32 -13 58 -7 58 15 0 8 5 11 13 8 6 -4 4 0 -7 9 -13
11 -17 22 -12 41 4 16 11 23 18 19 7 -4 8 -3 4 4 -9 14 -7 14 -26 2z"/>
<path d="M2146 7883 c6 -4 14 -15 17 -23 5 -11 6 -9 4 4 -1 11 -9 21 -17 23
-10 3 -11 2 -4 -4z"/>
<path d="M1217 7866 c-4 -10 -5 -21 -2 -24 9 -9 17 6 13 25 -3 17 -4 17 -11
-1z"/>
<path d="M2264 7841 c0 -21 7 -36 16 -38 10 -3 11 -2 3 4 -6 4 -13 22 -16 38
-4 27 -5 27 -3 -4z"/>
<path d="M2280 7853 c0 -5 5 -15 10 -23 8 -12 10 -11 10 8 0 12 -4 22 -10 22
-5 0 -10 -3 -10 -7z"/>
<path d="M2834 7852 c-13 -8 -14 -42 -2 -42 5 0 18 5 29 11 16 8 18 13 8 25
-13 16 -19 17 -35 6z"/>
<path d="M2790 7834 c0 -10 -6 -14 -14 -11 -8 3 -17 -1 -20 -10 -9 -21 0 -28
17 -15 8 7 17 9 20 5 4 -3 7 6 7 20 0 15 -2 27 -5 27 -3 0 -5 -7 -5 -16z"/>
<path d="M2170 7820 c-9 -6 -10 -10 -3 -10 6 0 15 5 18 10 8 12 4 12 -15 0z"/>
<path d="M2451 7821 c-9 -6 -10 -17 -4 -40 l8 -31 11 35 c12 37 7 49 -15 36z"/>
<path d="M2720 7794 c0 -8 5 -12 10 -9 6 3 10 10 10 16 0 5 -4 9 -10 9 -5 0
-10 -7 -10 -16z"/>
<path d="M2481 7787 c-8 -10 -7 -19 3 -33 14 -18 15 -18 25 6 7 18 10 20 10 8
1 -13 9 -18 34 -18 42 0 59 11 42 27 -7 7 -17 8 -26 2 -20 -13 -29 -11 -29 6
0 19 -43 20 -59 2z"/>
<path d="M2183 7771 c1 -14 9 -26 17 -28 10 -3 11 -2 4 4 -7 4 -14 17 -17 28
-5 16 -5 15 -4 -4z"/>
<path d="M2262 7770 c0 -14 2 -19 5 -12 2 6 2 18 0 25 -3 6 -5 1 -5 -13z"/>
<path d="M2286 7772 c-2 -4 -1 -14 5 -22 7 -12 9 -10 9 8 0 23 -5 28 -14 14z"/>
<path d="M2620 7770 c0 -5 11 -10 25 -10 14 0 25 5 25 10 0 6 -11 10 -25 10
-14 0 -25 -4 -25 -10z"/>
<path d="M2318 7748 c-2 -15 -9 -22 -21 -22 -22 2 -22 -12 0 -20 9 -4 20 -1
25 6 8 14 11 58 4 58 -3 0 -6 -10 -8 -22z"/>
<path d="M1301 7744 c0 -11 3 -14 6 -6 3 7 2 16 -1 19 -3 4 -6 -2 -5 -13z"/>
<path d="M2361 7731 c-1 -24 2 -32 9 -25 7 7 7 19 1 35 -9 23 -10 22 -10 -10z"/>
<path d="M2160 7689 c0 -24 26 -25 32 -1 4 12 -1 18 -13 19 -13 1 -19 -5 -19
-18z"/>
<path d="M2251 7674 c0 -11 3 -14 6 -6 3 7 2 16 -1 19 -3 4 -6 -2 -5 -13z"/>
<path d="M2280 7669 c0 -13 11 -18 45 -21 41 -3 45 -1 43 17 -2 16 -11 20 -45
20 -33 0 -43 -4 -43 -16z"/>
<path d="M1513 7673 c15 -2 37 -2 50 0 12 2 0 4 -28 4 -27 0 -38 -2 -22 -4z"/>
<path d="M1522 6964 c11 -11 21 -14 26 -9 4 6 6 9 3 8 -2 -1 -13 3 -25 9 -20
10 -20 10 -4 -8z"/>
<path d="M1765 6970 c-3 -5 -2 -10 4 -10 5 0 13 5 16 10 3 6 2 10 -4 10 -5 0
-13 -4 -16 -10z"/>
<path d="M1696 6944 c-3 -8 -2 -13 2 -10 5 3 20 -1 35 -9 15 -8 27 -10 27 -5
0 5 -11 12 -25 16 -14 3 -22 10 -19 15 3 5 1 9 -4 9 -6 0 -13 -7 -16 -16z"/>
<path d="M2086 4842 c-3 -6 -1 -14 5 -17 14 -9 20 -2 10 14 -6 8 -11 9 -15 3z"/>
<path d="M1621 3608 c-1 -22 18 -33 32 -19 8 8 7 11 -5 11 -9 0 -19 6 -21 13
-3 7 -6 6 -6 -5z"/>
<path d="M2571 3604 c0 -11 3 -14 6 -6 3 7 2 16 -1 19 -3 4 -6 -2 -5 -13z"/>
<path d="M1850 3536 c0 -2 7 -6 15 -10 8 -3 15 -1 15 4 0 6 -7 10 -15 10 -8 0
-15 -2 -15 -4z"/>
<path d="M1476 3485 c-10 -8 -23 -12 -27 -9 -5 3 -9 1 -9 -5 0 -15 38 -33 52
-25 7 4 8 3 4 -4 -10 -17 3 -15 20 2 16 16 19 40 4 31 -5 -3 -10 1 -10 9 0 20
-9 20 -34 1z"/>
<path d="M2450 3465 c0 -8 5 -15 10 -15 6 0 10 7 10 15 0 8 -4 15 -10 15 -5 0
-10 -7 -10 -15z"/>
<path d="M1620 3313 c0 -17 6 -23 23 -23 16 0 18 3 8 9 -7 5 -17 15 -22 22 -6
10 -9 8 -9 -8z"/>
<path d="M1760 3187 c0 -23 28 -34 43 -17 10 10 8 12 -5 7 -11 -4 -21 0 -27
11 -10 16 -10 16 -11 -1z"/>
<path d="M2330 3115 c0 -15 4 -24 10 -20 6 3 10 12 10 20 0 8 -4 17 -10 20 -6
4 -10 -5 -10 -20z"/>
<path d="M1874 3099 c-2 -3 14 -20 35 -37 32 -26 40 -29 45 -16 8 22 7 54 -1
55 -39 4 -76 3 -79 -2z"/>
<path d="M1817 3040 c9 -33 59 -81 77 -74 24 9 20 15 -33 56 -40 31 -48 34
-44 18z"/>
<path d="M2314 3052 c3 -5 0 -13 -6 -15 -9 -4 -10 -6 -1 -6 17 -1 25 16 12 25
-7 4 -9 3 -5 -4z"/>
<path d="M1762 2885 c4 -22 39 -28 46 -7 2 8 -2 10 -13 6 -10 -4 -21 -1 -27 7
-7 11 -8 9 -6 -6z"/>
<path d="M2581 3194 c0 -11 3 -14 6 -6 3 7 2 16 -1 19 -3 4 -6 -2 -5 -13z"/>
<path d="M2591 3094 c0 -11 3 -14 6 -6 3 7 2 16 -1 19 -3 4 -6 -2 -5 -13z"/>
<path d="M1455 3173 c-4 -21 -7 -54 -6 -73 1 -36 -10 -63 -25 -60 -5 1 -10 -4
-13 -11 -2 -8 2 -10 12 -6 19 7 31 -21 20 -49 -5 -13 6 -9 35 16 29 25 40 41
37 55 -3 11 -5 53 -5 93 0 69 -1 72 -24 72 -19 0 -25 -7 -31 -37z"/>
<path d="M1630 3182 c0 -19 30 -27 43 -12 9 10 9 12 -4 7 -9 -3 -22 0 -28 6
-8 8 -11 8 -11 -1z"/>
<path d="M1270 3108 c0 -19 2 -20 10 -8 13 19 13 30 0 30 -5 0 -10 -10 -10
-22z"/>
<path d="M1276 3054 c-4 -14 -5 -29 -2 -31 3 -3 8 7 12 21 3 15 4 29 1 32 -2
3 -8 -7 -11 -22z"/>
<path d="M1485 2982 c-35 -29 -50 -68 -37 -97 12 -26 27 -31 50 -16 9 5 12 27
10 69 -3 60 -3 61 -23 44z"/>
<path d="M1267 2983 c-11 -11 -8 -20 7 -20 8 0 12 6 9 14 -6 15 -7 15 -16 6z"/>
<path d="M1635 2890 c-3 -5 -3 -14 0 -20 8 -12 45 -13 45 -1 0 5 -8 8 -17 7
-10 0 -17 5 -15 12 3 15 -4 16 -13 2z"/>
<path d="M1771 2768 c-1 -22 18 -33 32 -19 8 8 7 11 -5 11 -9 0 -19 6 -21 13
-3 7 -6 6 -6 -5z"/>
<path d="M1902 2644 c21 -19 42 -34 48 -34 5 0 10 15 10 34 0 34 0 34 -47 34
l-48 0 37 -34z"/>
<path d="M1820 2617 c0 -24 49 -77 72 -77 28 0 19 18 -30 58 -30 24 -42 30
-42 19z"/>
<path d="M1631 2767 c-1 -22 26 -34 42 -18 8 8 6 11 -10 11 -12 0 -24 6 -26
13 -3 7 -6 5 -6 -6z"/>
<path d="M1450 2730 c0 -5 5 -10 10 -10 6 0 10 5 10 10 0 6 -4 10 -10 10 -5 0
-10 -4 -10 -10z"/>
<path d="M1270 2700 c0 -11 5 -20 10 -20 6 0 10 9 10 20 0 11 -4 20 -10 20 -5
0 -10 -9 -10 -20z"/>
<path d="M1130 2638 c0 -12 3 -17 8 -12 4 5 11 12 15 15 5 3 2 9 -7 12 -12 5
-16 0 -16 -15z"/>
<path d="M1260 2645 c0 -8 2 -15 4 -15 2 0 6 7 10 15 3 8 1 15 -4 15 -6 0 -10
-7 -10 -15z"/>
<path d="M1294 2649 c-3 -6 -1 -16 5 -22 8 -8 11 -5 11 11 0 24 -5 28 -16 11z"/>
<path d="M1446 2644 c-9 -22 -8 -24 9 -24 8 0 15 6 15 14 0 22 -17 28 -24 10z"/>
<path d="M1482 2640 c0 -14 2 -19 5 -12 2 6 2 18 0 25 -3 6 -5 1 -5 -13z"/>
<path d="M1207 2587 c-3 -8 1 -14 8 -14 7 0 11 6 8 14 -3 7 -6 13 -8 13 -2 0
-5 -6 -8 -13z"/>
<path d="M1265 2590 c-4 -6 -3 -16 3 -22 6 -6 12 -6 17 2 4 6 3 16 -3 22 -6 6
-12 6 -17 -2z"/>
<path d="M1450 2581 c0 -14 7 -19 25 -17 17 1 25 7 25 20 0 15 -3 16 -15 6
-10 -9 -15 -9 -15 -1 0 6 -4 11 -10 11 -5 0 -10 -9 -10 -19z"/>
<path d="M1300 2570 c0 -11 4 -20 9 -20 17 0 19 15 5 28 -12 11 -14 9 -14 -8z"/>
<path d="M1140 2531 c-6 -12 -7 -21 -1 -21 10 0 24 30 17 37 -2 3 -9 -5 -16
-16z"/>
<path d="M1240 2520 c0 -13 5 -20 13 -17 6 2 12 10 12 17 0 7 -6 15 -12 18 -8
2 -13 -5 -13 -18z"/>
<path d="M1281 2523 c0 -13 2 -14 6 -4 4 11 7 11 14 0 4 -7 11 -10 16 -6 4 5
1 12 -7 17 -22 14 -30 12 -29 -7z"/>
<path d="M1421 2524 c0 -11 3 -14 6 -6 3 7 2 16 -1 19 -3 4 -6 -2 -5 -13z"/>
<path d="M1440 2524 c0 -8 5 -12 10 -9 6 3 10 10 10 16 0 5 -4 9 -10 9 -5 0
-10 -7 -10 -16z"/>
<path d="M1470 2520 c0 -13 5 -20 13 -17 6 2 12 10 12 17 0 7 -6 15 -12 18 -8
2 -13 -5 -13 -18z"/>
<path d="M1631 2457 c-1 -22 26 -34 42 -18 8 8 6 11 -10 11 -12 0 -24 6 -26
13 -3 7 -6 5 -6 -6z"/>
<path d="M1455 2348 c-2 -7 -4 -38 -3 -68 0 -30 -2 -104 -5 -163 -5 -107 -5
-108 16 -105 28 4 35 45 36 221 1 121 0 127 -19 127 -12 0 -23 -6 -25 -12z"/>
<path d="M1295 2320 c-3 -11 -3 -24 0 -30 3 -5 2 -10 -3 -10 -5 0 -9 -12 -9
-26 0 -18 4 -24 15 -19 12 4 12 3 3 -9 -6 -7 -9 -22 -5 -32 5 -16 4 -16 -5 -4
-8 11 -11 12 -11 2 0 -7 -5 -10 -11 -6 -7 4 -10 1 -7 -7 3 -8 13 -13 22 -13 9
1 16 -2 16 -7 0 -5 -6 -9 -12 -9 -9 0 -8 -4 2 -10 14 -9 13 -11 -9 -14 -16 -2
-23 -14 -16 -26 5 -8 11 -8 21 1 14 11 20 -1 7 -14 -12 -13 -12 -61 0 -69 27
-17 35 -7 39 47 1 30 1 55 -2 55 -3 0 -5 11 -5 25 0 14 6 25 13 25 6 0 12 5
12 10 0 6 -7 10 -15 10 -18 0 -20 40 -2 40 7 0 4 7 -7 15 -19 15 -19 15 -1 15
15 0 16 3 7 12 -7 7 -12 25 -12 40 0 32 -16 37 -25 8z"/>
<path d="M1652 2324 c14 -14 21 -15 30 -6 8 8 9 12 1 12 -6 0 -20 3 -30 6 -17
7 -17 6 -1 -12z"/>
<path d="M1247 2264 c7 -3 9 -12 6 -21 -4 -11 -2 -14 5 -9 18 11 14 36 -5 35
-10 0 -13 -3 -6 -5z"/>
<path d="M1093 2115 c0 -22 2 -30 4 -17 2 12 2 30 0 40 -3 9 -5 -1 -4 -23z"/>
<path d="M1235 2120 c-3 -5 -1 -10 4 -10 6 0 11 5 11 10 0 6 -2 10 -4 10 -3 0
-8 -4 -11 -10z"/>
<path d="M1653 2035 c2 -20 37 -35 37 -16 0 6 -6 11 -14 11 -8 0 -17 6 -20 13
-3 6 -5 3 -3 -8z"/>
<path d="M2493 2270 c0 -25 2 -35 4 -22 2 12 2 32 0 45 -2 12 -4 2 -4 -23z"/>
<path d="M2322 2260 c0 -14 2 -19 5 -12 2 6 2 18 0 25 -3 6 -5 1 -5 -13z"/>
<path d="M1920 2240 c-9 -16 -8 -20 5 -20 8 0 15 9 15 20 0 11 -2 20 -5 20 -2
0 -9 -9 -15 -20z"/>
<path d="M1950 2241 c0 -6 5 -13 10 -16 6 -3 10 1 10 9 0 9 -4 16 -10 16 -5 0
-10 -4 -10 -9z"/>
<path d="M1886 2231 c-4 -7 -5 -15 -2 -18 9 -9 19 4 14 18 -4 11 -6 11 -12 0z"/>
<path d="M2330 2200 c0 -11 2 -20 5 -20 2 0 9 9 15 20 9 16 8 20 -5 20 -8 0
-15 -9 -15 -20z"/>
<path d="M1928 2203 c-11 -3 -18 -14 -18 -29 0 -31 13 -31 34 1 24 36 22 38
-16 28z"/>
<path d="M1857 2175 c23 -31 33 -31 33 0 0 20 -5 25 -25 25 -26 0 -26 0 -8
-25z"/>
<path d="M2303 2135 c0 -8 4 -15 9 -15 4 0 8 7 8 15 0 8 -4 15 -8 15 -5 0 -9
-7 -9 -15z"/>
<path d="M1782 2030 c2 -8 13 -15 23 -15 10 0 20 7 22 15 4 13 3 13 -5 1 -9
-13 -13 -13 -28 0 -15 12 -17 12 -12 -1z"/>
<path d="M1662 1914 c14 -14 21 -15 30 -6 8 8 9 12 1 12 -6 0 -20 3 -30 6 -17
7 -17 6 -1 -12z"/>
<path d="M1448 1883 c7 -3 16 -2 19 1 4 3 -2 6 -13 5 -11 0 -14 -3 -6 -6z"/>
<path d="M1253 1864 c-3 -8 -2 -21 1 -30 5 -13 9 -14 21 -4 8 7 15 9 15 4 0
-4 5 -3 12 4 9 9 9 15 0 24 -17 17 -42 19 -49 2z"/>
<path d="M1430 1814 c0 -8 -7 -23 -16 -31 -13 -13 -13 -17 -2 -24 8 -5 13 -29
14 -58 1 -60 9 -81 28 -81 18 0 31 67 17 84 -6 7 -8 16 -4 19 3 4 7 24 9 45 1
20 0 29 -3 19 -2 -9 -9 -14 -15 -10 -7 4 -9 0 -5 -10 3 -10 2 -17 -2 -17 -14
0 -19 23 -14 53 3 15 3 27 -1 27 -3 0 -6 -7 -6 -16z"/>
<path d="M1265 1810 c-3 -5 -3 -10 2 -11 4 0 -2 -4 -15 -10 -13 -5 -20 -14
-17 -20 4 -6 13 -8 21 -5 10 4 14 0 12 -12 -4 -22 -21 -41 -30 -35 -5 2 -8 -6
-8 -19 0 -13 4 -18 8 -13 4 6 14 10 22 11 12 1 15 -7 12 -35 -2 -27 -1 -32 7
-21 6 8 11 28 11 43 0 20 4 26 13 21 8 -6 8 -3 -2 9 -8 10 -11 27 -7 43 11 43
-11 84 -29 54z"/>
<path d="M1113 1715 c0 -22 2 -30 4 -17 2 12 2 30 0 40 -3 9 -5 -1 -4 -23z"/>
<path d="M1157 1717 c-3 -8 1 -14 8 -14 7 0 11 6 8 14 -3 7 -6 13 -8 13 -2 0
-5 -6 -8 -13z"/>
<path d="M1396 1705 c-3 -9 0 -15 9 -15 8 0 15 7 15 15 0 8 -4 15 -9 15 -5 0
-11 -7 -15 -15z"/>
<path d="M1651 1627 c-1 -22 26 -34 42 -18 8 8 6 11 -10 11 -12 0 -24 6 -26
13 -3 7 -6 5 -6 -6z"/>
<path d="M1783 1915 c2 -5 12 -10 22 -10 10 0 20 5 22 10 2 6 -8 10 -22 10
-14 0 -23 -4 -22 -10z"/>
<path d="M2340 1850 c0 -11 4 -20 8 -20 4 0 8 9 8 20 0 11 -4 20 -8 20 -4 0
-8 -9 -8 -20z"/>
<path d="M1872 1836 c-29 -14 -46 -65 -32 -100 11 -29 54 -51 79 -40 12 5 6 9
-18 14 -38 9 -51 24 -51 62 0 33 24 58 56 58 14 0 22 4 19 10 -8 12 -23 11
-53 -4z"/>
<path d="M1945 1820 c3 -5 8 -10 11 -10 2 0 4 5 4 10 0 6 -5 10 -11 10 -5 0
-7 -4 -4 -10z"/>
<path d="M1971 1774 c0 -11 3 -14 6 -6 3 7 2 16 -1 19 -3 4 -6 -2 -5 -13z"/>
<path d="M2306 1773 c-6 -14 -5 -15 5 -6 7 7 10 15 7 18 -3 3 -9 -2 -12 -12z"/>
<path d="M1950 1725 c-8 -9 -8 -15 -2 -15 12 0 26 19 19 26 -2 2 -10 -2 -17
-11z"/>
<path d="M2325 1720 c-3 -5 -1 -10 4 -10 6 0 11 5 11 10 0 6 -2 10 -4 10 -3 0
-8 -4 -11 -10z"/>
<path d="M2360 1710 c0 -5 5 -10 10 -10 6 0 10 5 10 10 0 6 -4 10 -10 10 -5 0
-10 -4 -10 -10z"/>
<path d="M1788 1602 c5 -15 34 -12 39 3 2 6 -8 10 -21 10 -15 0 -22 -5 -18
-13z"/>
<path d="M1645 1490 c-9 -15 14 -40 31 -33 20 7 18 21 -3 19 -10 0 -17 5 -15
12 3 15 -4 16 -13 2z"/>
<path d="M1253 1435 c0 -14 3 -25 8 -25 5 0 9 6 9 13 0 8 4 7 10 -3 8 -12 10
-9 10 13 0 20 -5 27 -19 27 -13 0 -18 -7 -18 -25z"/>
<path d="M1272 1380 c14 -21 38 -27 38 -9 0 5 -4 8 -9 5 -5 -3 -11 1 -15 9 -3
8 -10 15 -16 15 -6 0 -5 -7 2 -20z"/>
<path d="M1234 1379 c-7 -12 15 -41 27 -33 14 8 11 31 -6 37 -8 4 -17 2 -21
-4z"/>
<path d="M1329 1367 c9 -9 41 -14 116 -18 34 -2 45 1 45 11 0 5 -7 6 -17 3 -9
-4 -14 -2 -11 3 4 5 -25 9 -68 10 -49 0 -71 -3 -65 -9z"/>
<path d="M1503 1365 c0 -8 4 -15 9 -15 4 0 8 4 8 9 0 6 -4 12 -8 15 -5 3 -9
-1 -9 -9z"/>
<path d="M1560 1360 c0 -5 5 -10 10 -10 6 0 10 5 10 10 0 6 -4 10 -10 10 -5 0
-10 -4 -10 -10z"/>
<path d="M1233 1314 c-9 -23 13 -40 32 -24 17 14 21 35 5 25 -5 -3 -10 -1 -10
4 0 17 -20 13 -27 -5z"/>
<path d="M1356 1311 c-4 -7 -5 -15 -2 -18 9 -9 19 4 14 18 -4 11 -6 11 -12 0z"/>
<path d="M1290 1300 c0 -5 5 -10 10 -10 6 0 10 5 10 10 0 6 -4 10 -10 10 -5 0
-10 -4 -10 -10z"/>
<path d="M1320 1300 c0 -5 5 -10 11 -10 5 0 7 5 4 10 -3 6 -8 10 -11 10 -2 0
-4 -4 -4 -10z"/>
<path d="M1250 1244 c0 -14 4 -23 10 -19 6 3 10 15 10 26 0 10 -4 19 -10 19
-5 0 -10 -12 -10 -26z"/>
<path d="M1640 1217 c0 -19 20 -36 36 -30 20 8 17 24 -3 21 -10 -2 -17 3 -15
10 1 6 -2 12 -8 12 -5 0 -10 -6 -10 -13z"/>
<path d="M1813 1457 c5 -15 37 -22 37 -9 0 5 -9 12 -21 15 -13 3 -19 1 -16 -6z"/>
<path d="M2021 1417 c-6 -8 -7 -18 -3 -22 4 -5 2 -5 -4 -2 -6 3 -31 -12 -55
-33 -24 -22 -56 -45 -71 -52 -34 -16 -37 -51 -6 -72 35 -25 41 -19 33 30 -5
33 -3 44 4 39 7 -3 11 -12 10 -18 -5 -38 3 -77 14 -77 9 0 11 12 9 39 -2 21 1
42 7 45 7 5 11 -11 11 -49 0 -41 3 -56 13 -53 8 3 12 27 13 67 2 82 14 92 14
12 0 -46 3 -62 13 -59 8 3 13 31 15 81 2 42 7 77 12 77 4 0 8 -32 7 -70 -2
-64 4 -83 17 -62 10 17 5 160 -7 180 -11 16 -32 15 -46 -1z m-14 -59 c-3 -8
-6 -5 -6 6 -1 11 2 17 5 13 3 -3 4 -12 1 -19z m-40 -40 c-3 -7 -5 -2 -5 12 0
14 2 19 5 13 2 -7 2 -19 0 -25z"/>
<path d="M1931 1376 c-16 -19 -11 -29 8 -17 7 5 12 14 9 21 -3 9 -8 7 -17 -4z"/>
<path d="M2160 1370 c0 -5 4 -10 9 -10 6 0 13 5 16 10 3 6 -1 10 -9 10 -9 0
-16 -4 -16 -10z"/>
<path d="M2230 1369 c-19 -3 -44 -10 -54 -16 -16 -9 -13 -11 22 -11 26 -1 42
4 42 11 0 8 3 9 8 1 4 -5 24 -11 45 -11 28 0 37 3 37 16 0 19 -30 22 -100 10z"/>
<path d="M2253 1300 c1 -19 7 -21 77 -19 84 2 91 4 84 24 -6 14 -81 14 -126
-1 -14 -4 -18 -2 -14 5 4 6 1 11 -8 11 -9 0 -14 -8 -13 -20z"/>
<path d="M2430 1300 c0 -5 5 -10 10 -10 6 0 10 5 10 10 0 6 -4 10 -10 10 -5 0
-10 -4 -10 -10z"/>
<path d="M1810 1198 c0 -9 5 -20 10 -23 12 -8 40 12 40 27 0 6 -7 5 -16 -3
-13 -10 -17 -10 -25 2 -7 12 -9 11 -9 -3z"/>
<path d="M1646 9334 c-10 -14 -16 -28 -13 -30 2 -3 12 7 21 22 10 14 16 28 13
30 -2 3 -12 -7 -21 -22z"/>
<path d="M1770 9310 c0 -5 5 -10 11 -10 5 0 7 5 4 10 -3 6 -8 10 -11 10 -2 0
-4 -4 -4 -10z"/>
<path d="M1778 9094 c-13 -22 -16 -85 -9 -164 5 -47 9 -70 10 -52 0 17 6 32
12 32 5 0 8 4 5 8 -9 15 -15 126 -7 136 5 6 5 20 1 30 -3 11 -9 15 -12 10z"/>
<path d="M1830 9035 c0 -15 18 -40 24 -34 3 3 -1 14 -9 25 -8 10 -14 15 -15 9z"/>
<path d="M1825 8920 c-3 -5 -1 -10 4 -10 6 0 11 5 11 10 0 6 -2 10 -4 10 -3 0
-8 -4 -11 -10z"/>
<path d="M290 7730 c0 -27 3 -31 22 -28 32 4 32 52 1 56 -20 3 -23 -1 -23 -28z"/>
<path d="M392 7718 c-25 -15 -30 -23 -20 -29 11 -7 10 -9 -1 -9 -8 0 -11 -3
-8 -6 12 -13 77 26 77 46 0 25 -7 25 -48 -2z"/>
<path d="M478 7703 c-19 -5 -24 -28 -9 -38 5 -3 16 2 24 10 9 8 23 15 31 15 9
0 16 5 16 10 0 10 -30 12 -62 3z"/>
<path d="M2489 7169 c-9 -11 -22 -41 -29 -67 -7 -26 -34 -80 -60 -119 -55 -83
-51 -88 8 -11 48 62 89 141 97 186 6 38 5 38 -16 11z"/>
<path d="M1470 6480 c0 -5 5 -10 10 -10 6 0 10 5 10 10 0 6 -4 10 -10 10 -5 0
-10 -4 -10 -10z"/>
<path d="M1408 6343 c-4 -244 -5 -276 -11 -378 -4 -55 -9 -165 -13 -245 -16
-418 -35 -590 -74 -693 -23 -60 -20 -71 8 -25 40 67 65 215 66 401 0 20 2 37
5 37 3 0 6 44 6 98 0 126 14 411 24 471 4 25 4 60 0 75 -5 16 -6 33 -4 36 3 4
7 63 10 131 3 68 9 148 14 177 7 47 6 52 -10 52 -18 0 -19 -11 -21 -137z"/>
<path d="M1543 6035 c0 -47 3 -88 7 -90 13 -8 16 129 4 154 -9 18 -11 7 -11
-64z"/>
<path d="M1463 5775 c0 -22 2 -30 4 -17 2 12 2 30 0 40 -3 9 -5 -1 -4 -23z"/>
<path d="M1448 5570 c-5 -52 -10 -149 -12 -215 l-5 -120 15 160 c8 88 13 185
12 215 -3 45 -4 38 -10 -40z"/>
<path d="M1566 5251 c-4 -7 -5 -15 -2 -18 9 -9 19 4 14 18 -4 11 -6 11 -12 0z"/>
<path d="M1543 5203 c-3 -10 -8 -22 -11 -27 -3 -5 0 -6 5 -3 11 7 25 47 17 47
-3 0 -7 -8 -11 -17z"/>
<path d="M1422 5180 c0 -19 2 -27 5 -17 2 9 2 25 0 35 -3 9 -5 1 -5 -18z"/>
<path d="M1797 5135 c6 -40 10 -52 17 -44 2 2 -3 22 -10 44 l-13 40 6 -40z"/>
<path d="M1907 5120 c6 -50 10 -60 24 -60 6 0 6 7 0 18 -5 9 -14 33 -20 52
-10 34 -10 34 -4 -10z"/>
<path d="M1411 5124 c0 -11 3 -14 6 -6 3 7 2 16 -1 19 -3 4 -6 -2 -5 -13z"/>
<path d="M1561 5123 c7 -10 15 -20 16 -22 2 -2 3 3 3 11 0 9 -7 19 -16 22 -15
6 -15 4 -3 -11z"/>
<path d="M1510 5115 c0 -8 4 -15 10 -15 5 0 7 7 4 15 -4 8 -8 15 -10 15 -2 0
-4 -7 -4 -15z"/>
<path d="M1609 5113 c-13 -16 -12 -17 4 -4 9 7 17 15 17 17 0 8 -8 3 -21 -13z"/>
<path d="M1394 5063 c-4 -16 -10 -32 -13 -38 -12 -17 -31 -65 -26 -65 3 0 13
17 23 38 20 39 36 92 27 92 -2 0 -8 -12 -11 -27z"/>
<path d="M1580 5086 c0 -2 7 -7 16 -10 8 -3 12 -2 9 4 -6 10 -25 14 -25 6z"/>
<path d="M1518 5048 c-2 -21 -1 -38 3 -38 11 0 16 34 9 55 -6 16 -8 12 -12
-17z"/>
<path d="M1566 5062 c-3 -6 -1 -14 5 -17 14 -9 20 -2 10 14 -6 8 -11 9 -15 3z"/>
<path d="M1964 5055 c3 -11 8 -33 12 -48 4 -18 10 -25 16 -19 6 6 2 24 -11 48
-12 22 -19 30 -17 19z"/>
<path d="M1650 5011 c0 -5 5 -13 10 -16 6 -3 10 -2 10 4 0 5 -4 13 -10 16 -5
3 -10 2 -10 -4z"/>
<path d="M1531 4979 c-7 -12 -10 -23 -8 -26 3 -3 11 5 17 17 15 28 8 35 -9 9z"/>
<path d="M1583 4971 c-2 -24 20 -44 42 -39 13 2 11 8 -12 30 -26 25 -29 26
-30 9z"/>
<path d="M1452 4949 c-8 -13 -9 -18 -2 -14 6 4 18 1 26 -6 8 -6 17 -9 21 -5 3
3 1 6 -6 6 -6 0 -15 9 -19 20 -7 19 -8 19 -20 -1z"/>
<path d="M1683 4933 c-7 -2 -13 -12 -13 -21 0 -15 -2 -15 -11 -2 -9 12 -10 12
-7 1 7 -25 24 -23 36 4 6 14 11 25 9 24 -1 0 -8 -3 -14 -6z"/>
<path d="M1560 4921 c0 -6 4 -13 10 -16 6 -3 7 1 4 9 -7 18 -14 21 -14 7z"/>
<path d="M1590 4910 c0 -5 6 -7 14 -4 9 3 17 -3 21 -16 4 -12 9 -19 12 -17 3
3 2 15 -2 26 -6 21 -45 30 -45 11z"/>
<path d="M1490 4900 c-13 -8 -12 -10 3 -10 9 0 17 5 17 10 0 12 -1 12 -20 0z"/>
<path d="M1538 4874 c3 -18 0 -30 -12 -36 -9 -5 -16 -13 -16 -19 0 -5 9 -4 20
3 20 13 30 78 11 78 -4 0 -6 -12 -3 -26z"/>
<path d="M1403 4851 c3 -13 2 -33 -4 -43 -14 -27 -2 -22 17 7 15 23 15 26 -2
42 -17 17 -17 17 -11 -6z"/>
<path d="M1668 4854 c-5 -4 -8 -16 -8 -26 0 -11 -4 -17 -9 -14 -4 3 -17 -4
-27 -17 -16 -18 -16 -19 -1 -8 11 8 29 11 48 7 24 -5 29 -3 21 7 -5 6 -12 23
-14 35 -1 13 -6 20 -10 16z"/>
<path d="M1470 4825 c0 -16 -6 -25 -16 -25 -14 0 -14 -2 0 -15 8 -9 12 -23 9
-33 -5 -13 1 -11 20 7 27 25 30 44 3 22 -12 -10 -13 -6 -9 29 3 22 3 40 -1 40
-3 0 -6 -11 -6 -25z"/>
<path d="M1580 4829 c0 -5 5 -7 10 -4 6 3 10 8 10 11 0 2 -4 4 -10 4 -5 0 -10
-5 -10 -11z"/>
<path d="M1571 4793 c7 -10 15 -20 16 -22 2 -2 3 5 3 17 0 14 -6 22 -16 22
-14 0 -15 -3 -3 -17z"/>
<path d="M1687 4774 c-30 -16 -28 -34 5 -34 12 0 18 3 15 7 -4 3 -2 12 5 20
16 20 6 23 -25 7z"/>
<path d="M1377 4762 c-10 -10 -17 -23 -17 -28 0 -5 4 -4 8 3 4 6 21 19 37 27
25 13 27 16 9 16 -11 0 -28 -8 -37 -18z"/>
<path d="M1618 4761 c-7 -10 -17 -19 -23 -20 -18 -2 -11 -26 9 -29 13 -3 16 0
11 9 -6 9 -2 11 13 7 18 -5 20 -3 12 17 -5 13 -6 26 -3 29 4 3 4 6 0 6 -3 0
-12 -8 -19 -19z"/>
<path d="M1479 4738 c-12 -23 -12 -23 10 -4 23 21 26 26 11 26 -5 0 -15 -10
-21 -22z"/>
<path d="M1763 4713 c9 -9 20 -13 24 -9 4 4 1 11 -7 16 -25 16 -35 11 -17 -7z"/>
<path d="M1435 4710 c-3 -5 -2 -10 4 -10 5 0 13 5 16 10 3 6 2 10 -4 10 -5 0
-13 -4 -16 -10z"/>
<path d="M1722 4690 c2 -6 19 -20 38 -31 19 -12 28 -15 20 -7 -8 7 -15 20 -15
28 0 8 -11 17 -24 18 -14 2 -22 -1 -19 -8z"/>
<path d="M1662 4673 c2 -9 8 -18 15 -20 7 -3 9 3 6 16 -6 25 -26 28 -21 4z"/>
<path d="M1593 4643 c9 -2 23 -2 30 0 6 3 -1 5 -18 5 -16 0 -22 -2 -12 -5z"/>
<path d="M1598 4523 c7 -3 16 -2 19 1 4 3 -2 6 -13 5 -11 0 -14 -3 -6 -6z"/>
<path d="M1492 4364 c-11 -12 -8 -14 18 -14 34 0 38 5 13 19 -13 6 -22 5 -31
-5z"/>
<path d="M2254 4371 c4 -5 1 -11 -6 -13 -9 -3 -9 -6 0 -12 7 -4 12 -2 12 4 0
6 4 8 10 5 6 -3 7 1 4 9 -3 9 -10 16 -16 16 -5 0 -7 -4 -4 -9z"/>
<path d="M1763 4323 c-50 -6 -39 -19 17 -20 42 -1 49 2 39 13 -6 8 -14 13 -18
12 -3 0 -21 -3 -38 -5z"/>
<path d="M1840 4320 c0 -5 5 -10 11 -10 5 0 7 5 4 10 -3 6 -8 10 -11 10 -2 0
-4 -4 -4 -10z"/>
<path d="M1950 4321 c-62 -11 -10 -19 129 -20 121 -1 164 8 109 23 -29 7 -191
5 -238 -3z"/>
<path d="M2255 4310 c3 -5 11 -10 16 -10 6 0 7 5 4 10 -3 6 -11 10 -16 10 -6
0 -7 -4 -4 -10z"/>
<path d="M2275 4262 c-16 -10 -16 -52 0 -52 7 0 15 6 18 13 7 18 -7 47 -18 39z"/>
<path d="M1498 4223 c6 -2 18 -2 25 0 6 3 1 5 -13 5 -14 0 -19 -2 -12 -5z"/>
<path d="M1696 4194 c-20 -19 -20 -25 -1 -18 8 4 15 10 15 14 0 5 15 11 33 13
l32 4 -32 1 c-17 1 -39 -5 -47 -14z"/>
<path d="M2169 4198 c-13 -13 -76 -15 -87 -3 -3 3 -11 0 -19 -6 -9 -9 -13 -8
-13 0 0 16 -78 11 -92 -6 -5 -7 -14 -10 -19 -7 -17 10 -9 -9 9 -22 16 -12 15
-14 -8 -15 -14 -1 -40 -1 -59 0 -22 2 -31 -1 -27 -8 4 -6 26 -11 50 -11 23 0
47 -5 54 -12 9 -9 13 -8 17 4 5 13 19 15 72 10 48 -4 64 -2 59 7 -10 16 10 14
42 -5 15 -9 21 -10 12 -3 -17 16 -26 44 -11 35 17 -11 40 5 33 22 -5 16 -5 16
11 0 9 -9 17 -29 17 -44 0 -22 -2 -25 -15 -14 -8 7 -15 9 -15 4 0 -5 19 -18
43 -30 l42 -20 -1 33 c-1 18 2 33 7 33 5 0 9 -6 9 -12 0 -10 3 -9 9 1 7 11 9
11 13 0 3 -8 9 -11 13 -7 4 4 4 13 -2 20 -5 7 -9 24 -8 38 1 24 -2 25 -61 28
-41 2 -66 -1 -75 -10z"/>
<path d="M1737 4173 c3 -8 17 -13 32 -13 14 1 29 1 34 0 22 -7 51 -3 54 6 2 7
-7 10 -22 9 -14 -2 -27 1 -30 6 -3 4 -21 8 -39 7 -25 -1 -33 -5 -29 -15z"/>
<path d="M2300 4100 c0 -5 5 -10 10 -10 6 0 10 5 10 10 0 6 -4 10 -10 10 -5 0
-10 -4 -10 -10z"/>
<path d="M1483 3945 c1 -26 5 -35 18 -35 11 0 15 7 14 24 -6 54 -34 64 -32 11z"/>
<path d="M2583 3920 c0 -25 2 -35 4 -22 2 12 2 32 0 45 -2 12 -4 2 -4 -23z"/>
<path d="M1322 3930 c0 -14 2 -19 5 -12 2 6 2 18 0 25 -3 6 -5 1 -5 -13z"/>
<path d="M2331 3892 c0 -29 -5 -51 -10 -48 -4 3 -8 -11 -7 -32 1 -20 4 -36 9
-34 4 1 12 2 17 2 6 0 10 11 10 25 0 14 -3 25 -8 25 -4 0 -6 18 -4 39 2 21 2
47 -1 57 -3 11 -5 -5 -6 -34z"/>
<path d="M1488 3813 c7 -3 16 -2 19 1 4 3 -2 6 -13 5 -11 0 -14 -3 -6 -6z"/>
<path d="M152 3607 c-7 -8 -7 -18 -2 -27 8 -13 11 -13 25 1 14 13 14 17 2 27
-11 10 -17 9 -25 -1z"/>
</g>
</svg>
