<?xml version="1.0" standalone="no"?>
<!DOCTYPE svg PUBLIC "-//W3C//DTD SVG 20010904//EN"
 "http://www.w3.org/TR/2001/REC-SVG-20010904/DTD/svg10.dtd">
<svg version="1.0" xmlns="http://www.w3.org/2000/svg"
 width="800.000000pt" height="800.000000pt" viewBox="0 0 800.000000 800.000000"
 preserveAspectRatio="xMidYMid meet">

<g transform="translate(0.000000,800.000000) scale(0.100000,-0.100000)"
fill="#000000" stroke="none">
<path d="M1937 7228 c-53 -35 -97 -65 -97 -68 0 -8 275 -116 425 -167 71 -24
207 -66 301 -92 l172 -47 -283 -774 -282 -775 -39 2 c-57 4 -489 113 -702 178
-217 66 -485 162 -681 244 l-142 59 -49 -97 c-512 -1021 -525 -2272 -35 -3309
l57 -120 111 45 c276 112 613 222 921 303 131 34 449 107 542 123 l31 6 288
-790 c158 -434 286 -792 283 -795 -3 -2 -66 -21 -139 -40 -74 -19 -204 -58
-289 -86 -160 -52 -490 -178 -490 -188 0 -7 179 -122 199 -127 9 -2 68 16 131
40 420 162 882 268 1395 319 172 17 748 17 920 0 496 -50 907 -141 1341 -299
l153 -55 104 68 105 68 -42 19 c-167 75 -540 198 -796 262 -58 15 -106 28
-108 29 -3 4 556 1537 563 1544 12 12 481 -103 748 -184 221 -67 473 -157 676
-241 85 -34 157 -63 161 -63 4 0 37 62 73 139 491 1023 495 2238 11 3260 -31
66 -61 121 -66 121 -5 0 -71 -24 -146 -54 -169 -67 -380 -140 -577 -201 -256
-80 -836 -219 -848 -205 -5 6 -556 1520 -563 1547 -5 16 7 22 93 42 212 51
562 167 755 249 l66 28 -106 69 -105 68 -46 -18 c-25 -10 -129 -46 -231 -81
-378 -130 -759 -210 -1215 -256 -171 -17 -748 -17 -920 0 -512 51 -975 157
-1393 318 -63 24 -119 44 -126 44 -6 0 -55 -28 -109 -62z m1237 -453 c308 -48
474 -59 856 -59 381 0 536 11 849 60 90 14 165 23 168 20 8 -7 572 -1560 568
-1564 -1 -2 -92 -16 -201 -32 -824 -119 -1700 -127 -2523 -24 -209 26 -490 69
-497 77 -2 2 123 354 278 781 l283 777 30 -5 c16 -3 101 -17 189 -31z m776
-1800 c44 -44 80 -83 80 -87 0 -5 -48 -8 -106 -8 l-106 0 -45 40 -45 40 -41
-35 -41 -35 -113 0 c-62 0 -113 2 -113 4 0 3 42 41 93 86 l92 82 133 -4 132
-4 80 -79z m-2652 10 c182 -37 316 -141 396 -308 40 -83 76 -204 76 -255 0
-17 -13 -20 -113 -31 -173 -17 -161 -20 -186 47 -56 156 -169 232 -326 220
-121 -10 -209 -80 -272 -215 -139 -301 -93 -831 89 -1029 53 -57 94 -82 156
-94 114 -21 235 24 343 129 l68 66 -6 118 -6 117 -157 0 -157 0 -7 38 c-3 20
-6 90 -6 155 l0 117 235 2 c129 1 265 3 303 3 l67 0 13 -359 13 -359 -44 -56
c-49 -62 -174 -168 -260 -219 -73 -44 -179 -80 -277 -94 -339 -50 -596 205
-701 694 -30 136 -37 398 -15 548 43 294 141 520 283 650 129 118 288 155 491
115z m5718 -29 c128 -34 263 -148 341 -286 51 -90 106 -252 128 -375 26 -141
31 -386 11 -540 -42 -326 -134 -547 -287 -689 -167 -155 -372 -177 -607 -65
-205 98 -353 331 -408 644 -26 142 -26 475 -1 599 51 250 157 464 289 581 64
56 175 111 260 130 82 18 210 18 274 1z m-4691 -96 c348 -23 411 -31 492 -62
250 -93 313 -538 107 -758 -48 -51 -140 -105 -200 -116 -19 -3 -34 -10 -34
-15 0 -5 91 -163 201 -350 111 -187 200 -342 197 -344 -2 -3 -71 -8 -154 -13
-104 -6 -152 -5 -160 2 -6 6 -80 130 -164 276 -84 146 -164 278 -179 294 -35
38 -96 66 -148 66 l-43 0 5 -237 c3 -131 7 -286 10 -345 3 -81 1 -108 -8 -108
-6 -1 -66 -7 -132 -14 -66 -8 -122 -13 -123 -11 -5 5 -31 1748 -26 1756 2 4
14 5 26 3 13 -2 163 -13 333 -24z m3744 -77 c-1 -246 -36 -1674 -41 -1678 -7
-7 -234 17 -250 26 -9 6 -9 164 0 701 7 381 15 766 19 855 l6 162 71 4 c39 1
99 4 134 5 l62 2 -1 -77z m-419 -10 c0 -111 -31 -1627 -33 -1629 -1 0 -58 4
-126 10 l-123 10 6 146 c3 80 10 339 16 575 6 237 12 464 14 505 6 96 12 109
-159 -329 l-139 -354 -65 7 c-37 3 -86 6 -111 6 l-45 0 -140 367 -140 367 -6
-250 c-3 -137 -7 -417 -8 -621 l-1 -373 -72 0 c-40 0 -97 3 -125 6 l-53 7 0
547 c0 301 3 655 7 787 l6 240 196 6 c108 3 199 2 204 -2 4 -4 56 -140 116
-302 60 -161 113 -305 118 -317 8 -20 30 31 132 307 l123 331 47 1 c38 1 231
11 334 17 27 2 27 2 27 -65z m-1847 31 l408 -6 -3 -132 -3 -131 -367 4 -368 3
0 -176 0 -176 98 0 c54 0 207 -3 340 -7 l242 -6 0 -129 0 -128 -340 0 -340 0
0 -215 0 -215 373 0 374 0 6 -132 c4 -72 6 -133 4 -134 -1 -1 -230 -4 -509 -6
l-508 -5 0 804 0 804 93 -5 c50 -3 276 -9 500 -12z m643 -1914 c339 -19 683
-56 982 -105 79 -13 146 -26 149 -29 5 -5 -541 -1521 -556 -1544 -4 -5 -68 1
-156 14 -299 47 -466 58 -845 58 -383 0 -523 -10 -853 -60 -97 -15 -180 -25
-183 -21 -4 3 -134 358 -291 788 -198 545 -281 784 -272 789 14 9 351 55 544
75 120 12 322 27 510 38 132 8 813 6 971 -3z"/>
<path d="M3188 6399 c-9 -5 -43 -15 -75 -22 -57 -13 -58 -14 -61 -50 l-3 -37
43 0 c24 0 49 -4 56 -8 10 -7 4 -71 -29 -318 -23 -170 -45 -312 -48 -316 -3
-3 -28 -2 -56 2 -27 4 -52 6 -54 4 -8 -7 -18 -85 -12 -89 7 -4 295 -45 318
-45 9 0 13 16 13 50 l0 50 -42 0 c-24 0 -49 4 -56 8 -10 7 -3 86 35 385 25
207 45 378 42 380 -12 11 -56 15 -71 6z"/>
<path d="M4710 6374 c-42 -18 -96 -68 -117 -108 -14 -28 -14 -30 17 -60 31
-30 32 -30 43 -11 7 11 28 37 48 57 32 33 43 38 83 38 36 0 52 -6 77 -28 27
-24 33 -37 37 -84 7 -94 -39 -144 -146 -156 -32 -4 -42 -8 -38 -19 4 -8 6 -30
6 -49 l0 -34 73 0 c94 0 134 -20 165 -80 28 -56 29 -123 2 -167 -54 -90 -192
-82 -263 14 l-23 32 -37 -30 c-20 -17 -37 -35 -37 -40 0 -23 95 -109 138 -126
135 -51 288 9 328 129 42 129 -24 304 -129 341 -8 3 -7 10 5 23 45 51 62 160
37 235 -16 46 -55 97 -93 120 -38 23 -126 25 -176 3z"/>
<path d="M3585 6336 c-38 -17 -100 -85 -121 -133 -9 -21 -18 -77 -21 -125 -7
-102 9 -157 61 -216 70 -80 191 -84 273 -9 13 11 25 19 27 16 8 -9 -16 -125
-35 -169 -54 -121 -165 -161 -263 -95 l-34 23 -24 -45 -23 -44 23 -20 c29 -23
113 -49 160 -49 131 0 236 108 278 287 20 84 23 285 5 368 -24 108 -79 190
-144 214 -38 15 -125 13 -162 -3z m146 -103 c37 -22 71 -92 77 -158 8 -95 -60
-180 -143 -180 -86 0 -142 79 -132 186 6 66 40 134 77 155 35 18 86 17 121 -3z"/>
<path d="M4170 6339 c-104 -41 -160 -193 -160 -432 0 -263 65 -403 203 -438
121 -30 226 36 267 168 17 53 21 94 21 188 0 264 -62 448 -171 503 -47 23
-116 28 -160 11z m138 -114 c62 -52 95 -180 96 -375 1 -178 -27 -249 -108
-280 -59 -22 -118 17 -156 102 -46 104 -48 378 -4 488 34 85 113 115 172 65z"/>
<path d="M6763 4616 c-135 -44 -227 -163 -281 -365 -23 -86 -25 -115 -26 -286
-1 -123 4 -211 12 -250 62 -284 176 -421 359 -433 64 -4 79 -1 127 22 132 65
218 232 256 504 18 124 8 397 -18 494 -41 151 -108 253 -198 297 -58 30 -168
38 -231 17z"/>
<path d="M2216 4570 c-2 -3 -1 -101 2 -217 l4 -213 162 0 c252 0 313 17 352
97 10 22 20 68 22 110 7 122 -45 195 -149 209 -65 8 -391 20 -393 14z"/>
<path d="M4067 2276 c-4 -143 -7 -345 -7 -448 l0 -188 45 0 45 0 0 83 c0 46 3
132 7 190 l6 107 101 0 c147 1 200 29 246 133 27 60 37 176 20 236 -16 61 -63
106 -131 124 -30 9 -114 17 -190 20 l-136 4 -6 -261z m313 125 c44 -22 62 -67
54 -135 -12 -109 -49 -136 -183 -136 l-89 0 5 138 c2 75 6 142 8 147 5 17 165
6 205 -14z"/>
<path d="M3620 2523 c-25 -2 -82 -5 -127 -9 l-83 -6 0 -29 c0 -44 89 -852 95
-857 11 -12 274 17 306 33 90 45 124 118 117 245 -5 89 -37 157 -88 187 l-30
17 34 36 c43 44 52 64 61 122 9 60 -9 143 -40 184 -42 54 -132 83 -245 77z
m114 -117 c48 -20 66 -51 66 -114 0 -104 -49 -142 -184 -142 l-73 0 -6 58 c-4
31 -9 89 -13 129 l-6 72 33 4 c76 9 152 6 183 -7z m41 -380 c40 -26 59 -74 59
-143 -1 -105 -37 -135 -176 -146 l-76 -7 -6 38 c-3 20 -8 73 -11 117 -3 44 -8
97 -11 117 l-6 37 44 4 c73 8 157 0 183 -17z"/>
<path d="M3090 2474 c-229 -29 -232 -30 -226 -52 2 -9 44 -208 93 -440 l88
-424 38 5 c21 3 40 7 43 9 3 3 -51 304 -70 390 -3 13 11 18 78 27 159 23 146
16 139 70 -3 25 -9 50 -13 54 -4 5 -56 1 -115 -7 -60 -9 -109 -15 -111 -13 -2
2 -14 58 -27 126 -18 90 -21 124 -12 127 6 3 78 13 158 23 81 10 149 20 152
22 9 10 -8 109 -19 108 -6 0 -94 -12 -196 -25z"/>
<path d="M4687 2268 c-89 -238 -217 -612 -217 -635 0 -9 15 -13 43 -13 l42 0
34 110 c19 61 38 113 43 116 5 3 58 0 118 -6 l110 -13 0 -123 0 -124 28 -5
c73 -16 66 -49 59 288 -7 317 -23 608 -35 618 -4 4 -36 9 -72 13 l-66 6 -87
-232z m159 -129 l7 -201 -54 6 c-130 16 -130 16 -123 39 5 18 116 318 140 381
7 18 8 18 15 -2 4 -11 11 -112 15 -223z"/>
</g>
</svg>
